<?xml version="1.0" encoding="UTF-8"?><svg id="Ebene_1" xmlns="http://www.w3.org/2000/svg" xmlns:xlink="http://www.w3.org/1999/xlink" viewBox="0 0 512 512"><defs><style>.cls-1{fill:url(#Unbenannter_Verlauf_110);}.cls-2{fill:url(#Unbenannter_Verlauf_110-2);}.cls-3{fill:url(#Unbenannter_Verlauf_110-3);}</style><linearGradient id="Unbenannter_Verlauf_110" x1="134.92" y1="463.81" x2="344.82" y2="100.24" gradientUnits="userSpaceOnUse"><stop offset="0" stop-color="#29abe2"/><stop offset="1" stop-color="#80daff"/></linearGradient><linearGradient id="Unbenannter_Verlauf_110-2" x1="311.61" y1="234.87" x2="378.06" y2="119.77" xlink:href="#Unbenannter_Verlauf_110"/><linearGradient id="Unbenannter_Verlauf_110-3" x1="249.71" y1="530.41" x2="382.88" y2="299.75" xlink:href="#Unbenannter_Verlauf_110"/></defs><path class="cls-1" d="m395.75,359.87c-26.37-74.43-97.34-127.76-180.78-127.86h0c3.23-.01,6.43-.18,9.57-.5,1.61-.16,3.22-.37,4.8-.61.79-.12,1.59-.25,2.37-.39,1.58-.28,3.14-.6,4.69-.96,3.1-.71,6.14-1.58,9.11-2.59,5.95-2.01,11.63-4.59,16.99-7.67,2.68-1.54,5.28-3.21,7.79-4.99,2.51-1.78,4.93-3.69,7.25-5.7,1.16-1.01,2.3-2.04,3.41-3.1,1.11-1.06,2.2-2.15,3.26-3.26,1.06-1.11,2.09-2.25,3.1-3.41,1.01-1.16,1.98-2.35,2.93-3.56.95-1.21,1.87-2.44,2.76-3.7s1.76-2.53,2.59-3.83c.42-.65.82-1.3,1.23-1.96.8-1.32,1.57-2.66,2.31-4.02s1.45-2.74,2.12-4.14c1.01-2.1,1.95-4.24,2.81-6.42.29-.73.56-1.46.83-2.19.54-1.47,1.04-2.96,1.51-4.46,2.8-9.02,4.32-18.61,4.32-28.55,0-3.31-.17-6.59-.5-9.82-.16-1.61-.37-3.22-.61-4.8-.12-.79-.25-1.59-.39-2.37-.28-1.58-.6-3.14-.96-4.69-.54-2.32-1.16-4.61-1.86-6.87-2.34-7.52-5.57-14.63-9.58-21.23-.4-.66-.81-1.31-1.23-1.96-2.5-3.9-5.27-7.6-8.29-11.08-1.01-1.16-2.04-2.3-3.1-3.41-1.06-1.11-2.15-2.2-3.26-3.26-1.11-1.06-2.25-2.09-3.41-3.1-3.48-3.02-7.19-5.79-11.08-8.29-.65-.42-1.3-.82-1.96-1.23-6.6-4.01-13.72-7.24-21.23-9.58-2.25-.7-4.54-1.32-6.87-1.86-1.55-.36-3.11-.68-4.69-.96-.79-.14-1.58-.27-2.37-.39-1.59-.24-3.19-.45-4.8-.61-3.23-.33-6.5-.5-9.82-.5-9.94,0-19.53,1.51-28.55,4.32-1.5.47-2.99.97-4.46,1.51-.74.27-1.47.55-2.19.83-2.18.86-4.32,1.8-6.42,2.81-1.4.67-2.78,1.38-4.14,2.12s-2.7,1.51-4.02,2.31c-.66.4-1.31.81-1.96,1.23-1.3.83-2.58,1.7-3.83,2.59s-2.49,1.81-3.7,2.76c-1.21.95-2.39,1.93-3.56,2.93-1.16,1.01-2.3,2.04-3.41,3.1-1.11,1.06-2.2,2.15-3.26,3.26-1.06,1.11-2.09,2.25-3.1,3.41-2.01,2.32-3.91,4.74-5.7,7.25-1.78,2.51-3.45,5.11-4.99,7.79-3.08,5.36-5.66,11.05-7.67,16.99-1.01,2.97-1.87,6.01-2.59,9.11-.36,1.55-.68,3.11-.96,4.69-.14.79-.27,1.58-.39,2.37-.24,1.59-.45,3.19-.61,4.8-.33,3.23-.5,6.5-.5,9.82,0,52.94,42.85,95.87,95.76,96h0c-83.44.11-154.41,53.44-180.78,127.87-11.08,31.28,12.02,64.13,45.21,64.13h271.63c33.19,0,56.3-32.85,45.21-64.13Z"/><path class="cls-2" d="m329.32,100.32c.88,2.82,1.66,5.72,2.33,8.6.45,1.94.85,3.91,1.2,5.86.18.98.34,1.98.49,2.97.3,1.99.56,4.01.76,6,.41,4.04.62,8.16.62,12.24,0,12.15-1.82,24.16-5.4,35.67-.58,1.87-1.22,3.75-1.89,5.58-.34.92-.69,1.84-1.04,2.75-1.07,2.71-2.25,5.41-3.51,8.03-.84,1.74-1.73,3.48-2.65,5.18-.92,1.69-1.89,3.38-2.89,5.03-.5.82-1.01,1.65-1.53,2.45-1.04,1.61-2.12,3.23-3.23,4.78-1.11,1.56-2.27,3.11-3.45,4.62-1.18,1.5-2.41,3-3.66,4.44-1.25,1.44-2.55,2.87-3.87,4.26-1.32,1.38-2.69,2.75-4.07,4.07-.38.36-.76.72-1.15,1.08,15.59,6.37,30.48,14.62,44.41,24.64,5.11,3.68,10.04,7.57,14.8,11.67,1.54-1.18,3.06-2.39,4.53-3.66,1.16-1.01,2.3-2.04,3.41-3.1,1.11-1.06,2.2-2.15,3.26-3.26s2.09-2.25,3.1-3.41c1.01-1.16,1.98-2.35,2.93-3.56.95-1.21,1.87-2.44,2.76-3.7.89-1.25,1.76-2.53,2.59-3.83.42-.65.82-1.3,1.23-1.96.8-1.32,1.57-2.66,2.31-4.02.74-1.36,1.45-2.74,2.12-4.14,1.01-2.1,1.95-4.24,2.81-6.42.29-.73.56-1.46.83-2.19.54-1.47,1.04-2.96,1.51-4.46,2.8-9.02,4.32-18.61,4.32-28.55,0-3.31-.17-6.59-.5-9.82-.16-1.61-.37-3.22-.61-4.8-.12-.79-.25-1.59-.39-2.37-.28-1.58-.6-3.14-.96-4.69-.54-2.32-1.16-4.61-1.86-6.87-2.34-7.52-5.57-14.63-9.58-21.23-.4-.66-.81-1.31-1.23-1.96-2.5-3.9-5.27-7.6-8.29-11.08-1.01-1.16-2.04-2.3-3.1-3.41-1.06-1.11-2.15-2.2-3.26-3.26-1.11-1.06-2.25-2.09-3.41-3.1-3.48-3.02-7.19-5.79-11.08-8.29-.65-.42-1.3-.82-1.96-1.23-6.37-3.87-13.23-7.01-20.45-9.33.99,2.55,1.91,5.14,2.72,7.75Z"/><path class="cls-3" d="m478.31,407.86c-14.88-42-43.96-77.28-81.48-100.07,8.84,13.82,16.06,28.58,21.54,44.05,3.97,11.2,5.14,23.26,3.38,34.86-1.67,11.03-5.97,21.7-12.45,30.86-6.46,9.14-15.05,16.74-24.86,21.99-10.33,5.52-22.05,8.44-33.91,8.44H119.94c8.16,14.1,23.32,24,41.53,24h271.63c33.19,0,56.3-32.85,45.21-64.14Z"/></svg>