<?xml version="1.0" encoding="UTF-8"?><svg id="Ebene_1" xmlns="http://www.w3.org/2000/svg" xmlns:xlink="http://www.w3.org/1999/xlink" viewBox="0 0 512 512"><defs><style>.cls-1{fill:url(#Unbenannter_Verlauf_110);}.cls-2{fill:url(#Unbenannter_Verlauf_110-2);}</style><linearGradient id="Unbenannter_Verlauf_110" x1="75.61" y1="555.65" x2="378.48" y2="31.06" gradientUnits="userSpaceOnUse"><stop offset="0" stop-color="#29abe2"/><stop offset="1" stop-color="#80daff"/></linearGradient><linearGradient id="Unbenannter_Verlauf_110-2" x1="319.98" y1="494.88" x2="448.02" y2="273.12" xlink:href="#Unbenannter_Verlauf_110"/></defs><path class="cls-1" d="m282.18,485.82c-27.2-27.2-42.18-63.36-42.18-101.82,0-19.55,3.88-38.51,11.26-56h-99.26c-13.25,0-24-10.75-24-24h0c0-13.25,10.75-24,24-24h132.41c26.93-25.82,62.17-40,99.59-40s74.63,14.98,101.82,42.18c8.02,8.02,14.97,16.83,20.8,26.24,3.52-16.92,5.38-34.45,5.38-52.42C512,114.62,397.38,0,256,0S0,114.62,0,256c0,40.89,9.6,79.54,26.66,113.82L0,512l142.16-26.66c34.29,17.05,72.94,26.66,113.84,26.66,17.97,0,35.5-1.86,52.42-5.38-9.41-5.83-18.22-12.77-26.24-20.8ZM128,208c0-13.25,10.75-24,24-24h208c13.25,0,24,10.75,24,24h0c0,13.25-10.75,24-24,24h-208c-13.25,0-24-10.75-24-24h0Z"/><path class="cls-2" d="m384,256c-32.76,0-65.52,12.5-90.51,37.49-49.99,49.99-49.99,131.03,0,181.02,24.99,24.99,57.75,37.49,90.51,37.49s65.52-12.5,90.51-37.49c49.99-49.99,49.99-131.03,0-181.02-24.99-24.99-57.75-37.49-90.51-37.49h0Zm-70.93,164.99c-15.7-30.15-10.92-68.28,14.37-93.56,15.59-15.59,36.08-23.39,56.56-23.39,12.72,0,25.45,3.01,37,9.02l-107.93,107.93h0Zm70.94,42.97c-12.72,0-25.45-3.01-37-9.02l107.93-107.93c15.7,30.15,10.92,68.28-14.37,93.56-15.59,15.59-36.08,23.39-56.56,23.39h0Z"/></svg>