<?xml version="1.0" encoding="UTF-8"?>
<svg id="Ebene_1" data-name="Ebene 1" xmlns="http://www.w3.org/2000/svg" xmlns:xlink="http://www.w3.org/1999/xlink" viewBox="0 0 512 512">
  <defs>
    <style>
      .cls-1 {
        fill: url(#Unbenannter_Verlauf_12-3);
      }

      .cls-2 {
        fill: url(#Unbenannter_Verlauf_12-2);
      }

      .cls-3 {
        fill: url(#Unbenannter_Verlauf_12);
      }
    </style>
    <linearGradient id="Unbenannter_Verlauf_12" data-name="Unbenannter Verlauf 12" x1="106.82" y1="339.54" x2="277.18" y2="44.46" gradientUnits="userSpaceOnUse">
      <stop offset="0" stop-color="#999"/>
      <stop offset="1" stop-color="#e6e6e6"/>
    </linearGradient>
    <linearGradient id="Unbenannter_Verlauf_12-2" data-name="Unbenannter Verlauf 12" x1="250.1" y1="541.94" x2="477.26" y2="148.5" xlink:href="#Unbenannter_Verlauf_12"/>
    <linearGradient id="Unbenannter_Verlauf_12-3" data-name="Unbenannter Verlauf 12" x1="144.57" y1="274.14" x2="243.92" y2="102.06" xlink:href="#Unbenannter_Verlauf_12"/>
  </defs>
  <path class="cls-3" d="m288,48c26.47,0,48,21.53,48,48v192c0,26.47-21.53,48-48,48H96c-26.47,0-48-21.53-48-48V96c0-26.47,21.53-48,48-48h192m0-48H96C42.98,0,0,42.98,0,96v192c0,53.02,42.98,96,96,96h192c53.02,0,96-42.98,96-96V96c0-53.02-42.98-96-96-96h0Z"/>
  <path class="cls-2" d="m416,128h-16v48h16c26.47,0,48,21.53,48,48v192c0,26.47-21.53,48-48,48h-192c-26.47,0-48-21.53-48-48v-16h-48v16c0,53.02,42.98,96,96,96h192c53.02,0,96-42.98,96-96v-192c0-53.02-42.98-96-96-96Z"/>
  <path class="cls-1" d="m306.58,207.2c.04-.05.08-.11.12-.16.45-.56.88-1.14,1.28-1.74.06-.08.11-.17.16-.25.37-.58.73-1.17,1.05-1.78.05-.09.09-.18.14-.27.32-.61.61-1.24.87-1.88.03-.07.06-.15.09-.22.26-.65.5-1.32.7-2,.02-.05.03-.11.05-.16.2-.69.37-1.39.51-2.1,0-.04.01-.08.02-.13.14-.71.24-1.43.31-2.17,0-.04,0-.07,0-.11.07-.73.11-1.47.11-2.22s-.04-1.49-.11-2.22c0-.04,0-.07,0-.11-.07-.73-.18-1.46-.31-2.17,0-.04-.01-.09-.02-.13-.14-.71-.31-1.41-.51-2.1-.02-.05-.03-.11-.05-.16-.2-.68-.44-1.35-.7-2-.03-.07-.06-.15-.09-.22-.26-.64-.56-1.27-.87-1.88-.05-.09-.09-.18-.14-.27-.32-.61-.68-1.2-1.05-1.78-.05-.08-.11-.17-.16-.25-.4-.6-.83-1.18-1.28-1.74-.04-.05-.08-.11-.12-.16-.5-.62-1.04-1.21-1.6-1.77,0,0,0,0,0,0l-87-87c-9.37-9.37-24.57-9.37-33.94,0-9.37,9.37-9.37,24.57,0,33.94l46.03,46.03H96c-13.25,0-24,10.75-24,24s10.75,24,24,24h134.06l-46.03,46.03c-9.37,9.37-9.37,24.57,0,33.94,4.69,4.69,10.83,7.03,16.97,7.03s12.28-2.34,16.97-7.03l87-87s0,0,0,0c.56-.56,1.1-1.15,1.6-1.77Z"/>
</svg>