<?xml version="1.0" encoding="UTF-8"?>
<svg id="Ebene_1" data-name="Ebene 1" xmlns="http://www.w3.org/2000/svg" xmlns:xlink="http://www.w3.org/1999/xlink" viewBox="0 0 512 512">
  <defs>
    <style>
      .cls-1 {
        fill: url(#Unbenannter_Verlauf_12-6);
      }

      .cls-2 {
        fill: url(#Unbenannter_Verlauf_12-5);
      }

      .cls-3 {
        fill: url(#Unbenannter_Verlauf_12-3);
      }

      .cls-4 {
        fill: url(#Unbenannter_Verlauf_12-2);
      }

      .cls-5 {
        fill: none;
        stroke: url(#Unbenannter_Verlauf_12-4);
        stroke-linejoin: round;
        stroke-width: 48px;
      }

      .cls-6 {
        fill: url(#Unbenannter_Verlauf_12);
      }
    </style>
    <linearGradient id="Unbenannter_Verlauf_12" data-name="Unbenannter Verlauf 12" x1="125.93" y1="451.09" x2="297.86" y2="153.31" gradientUnits="userSpaceOnUse">
      <stop offset="0" stop-color="#999"/>
      <stop offset="1" stop-color="#e6e6e6"/>
    </linearGradient>
    <linearGradient id="Unbenannter_Verlauf_12-2" data-name="Unbenannter Verlauf 12" x1="186" y1="609.25" x2="326" y2="366.75" xlink:href="#Unbenannter_Verlauf_12"/>
    <linearGradient id="Unbenannter_Verlauf_12-3" data-name="Unbenannter Verlauf 12" x1="186" y1="145.25" x2="326" y2="-97.25" xlink:href="#Unbenannter_Verlauf_12"/>
    <linearGradient id="Unbenannter_Verlauf_12-4" data-name="Unbenannter Verlauf 12" x1="441.49" y1="416.82" x2="410.51" y2="95.18" xlink:href="#Unbenannter_Verlauf_12"/>
    <linearGradient id="Unbenannter_Verlauf_12-5" data-name="Unbenannter Verlauf 12" x1="436.11" y1="417.34" x2="405.13" y2="95.7" xlink:href="#Unbenannter_Verlauf_12"/>
    <linearGradient id="Unbenannter_Verlauf_12-6" data-name="Unbenannter Verlauf 12" x1="446.87" y1="416.3" x2="415.89" y2="94.66" xlink:href="#Unbenannter_Verlauf_12"/>
  </defs>
  <path class="cls-6" d="m263.22,375.68l-14.78-38.84h-125.8l-14.78,39.68c-5.77,15.48-10.7,25.93-14.78,31.35-4.08,5.42-10.77,8.13-20.05,8.13-7.88,0-14.85-2.89-20.9-8.65-6.05-5.77-9.08-12.31-9.08-19.63,0-4.22.7-8.58,2.11-13.09,1.41-4.5,3.73-10.77,6.97-18.79l79.16-200.95c2.25-5.77,4.96-12.7,8.13-20.79,3.17-8.09,6.54-14.81,10.13-20.16,3.59-5.35,8.3-9.67,14.14-12.98,5.84-3.3,13.05-4.96,21.64-4.96s16.01,1.66,21.85,4.96c5.84,3.31,10.55,7.57,14.14,12.77,3.59,5.21,6.61,10.8,9.08,16.78,2.46,5.98,5.59,13.97,9.39,23.96l80.84,199.68c6.33,15.2,9.5,26.25,9.5,33.14s-2.99,13.76-8.97,19.74c-5.98,5.98-13.19,8.97-21.64,8.97-4.93,0-9.15-.88-12.66-2.64-3.52-1.76-6.47-4.15-8.87-7.18-2.39-3.02-4.96-7.67-7.7-13.93-2.74-6.26-5.1-11.78-7.07-16.57Zm-124.12-85.91h92.45l-46.65-127.7-45.8,127.7Z"/>
  <rect class="cls-4" y="464" width="512" height="48" rx="24" ry="24"/>
  <rect class="cls-3" y="0" width="512" height="48" rx="24" ry="24"/>
  <g>
    <line class="cls-5" x1="426" y1="329.89" x2="426" y2="182.11"/>
    <polygon class="cls-2" points="485.84 312.38 426 416 366.16 312.38 485.84 312.38"/>
    <polygon class="cls-1" points="485.84 199.62 426 96 366.16 199.62 485.84 199.62"/>
  </g>
</svg>