<?xml version="1.0" encoding="UTF-8"?><svg id="Ebene_1" xmlns="http://www.w3.org/2000/svg" xmlns:xlink="http://www.w3.org/1999/xlink" viewBox="0 0 512 512"><defs><style>.cls-1{fill:url(#Unbenannter_Verlauf_105);}</style><linearGradient id="Unbenannter_Verlauf_105" x1="81.15" y1="558.85" x2="384.02" y2="34.26" gradientUnits="userSpaceOnUse"><stop offset="0" stop-color="#f66"/><stop offset="1" stop-color="#ffb3b3"/></linearGradient></defs><path class="cls-1" d="m256,0C114.62,0,0,114.62,0,256c0,40.89,9.6,79.54,26.66,113.82L0,512l142.16-26.66c34.29,17.05,72.94,26.66,113.84,26.66,141.38,0,256-114.62,256-256S397.38,0,256,0Zm64,304c0,13.25-10.75,24-24,24h-144c-13.25,0-24-10.75-24-24h0c0-13.25,10.75-24,24-24h144c13.25,0,24,10.75,24,24h0Zm64-96c0,13.25-10.75,24-24,24h-208c-13.25,0-24-10.75-24-24h0c0-13.25,10.75-24,24-24h208c13.25,0,24,10.75,24,24h0Z"/></svg>