<?xml version="1.0" encoding="UTF-8"?>
<svg id="Ebene_1" data-name="Ebene 1" xmlns="http://www.w3.org/2000/svg" xmlns:xlink="http://www.w3.org/1999/xlink" viewBox="0 0 426 512">
  <defs>
    <style>
      .cls-1 {
        fill: url(#Unbenannter_Verlauf_12);
      }
    </style>
    <linearGradient id="Unbenannter_Verlauf_12" data-name="Unbenannter Verlauf 12" x1="43.27" y1="515.19" x2="331.15" y2="16.56" gradientUnits="userSpaceOnUse">
      <stop offset="0" stop-color="#999"/>
      <stop offset="1" stop-color="#e6e6e6"/>
    </linearGradient>
  </defs>
  <path class="cls-1" d="m219.33,512H62.86c-22.59,0-38.71-5.06-48.37-15.19-9.66-10.13-14.49-26.25-14.49-48.37V63.56C0,40.98,4.94,24.74,14.84,14.84,24.74,4.95,40.74,0,62.86,0h165.89c24.45,0,45.63,1.52,63.56,4.54,17.93,3.03,33.99,8.85,48.2,17.46,12.1,7.22,22.82,16.36,32.13,27.42,9.31,11.06,16.41,23.29,21.3,36.67,4.89,13.39,7.33,27.54,7.33,42.43,0,51.22-25.62,88.71-76.84,112.46,67.29,21.42,100.93,63.1,100.93,125.03,0,28.64-7.33,54.43-22,77.36-14.67,22.94-34.46,39.87-59.37,50.82-15.6,6.52-33.53,11.12-53.78,13.79-20.26,2.68-43.89,4.02-70.9,4.02ZM103.73,77.88v132.37h95c25.84,0,45.81-2.44,59.9-7.33,14.08-4.89,24.85-14.2,32.31-27.94,5.82-9.78,8.73-20.72,8.73-32.83,0-25.84-9.2-43.01-27.59-51.51-18.4-8.5-46.45-12.75-84.17-12.75h-84.17Zm107.92,206.76h-107.92v149.48h111.41c70.08,0,105.12-25.26,105.12-75.79,0-25.84-9.08-44.58-27.24-56.23-18.16-11.64-45.29-17.46-81.37-17.46Z"/>
</svg>