<?xml version="1.0" encoding="UTF-8"?>
<svg id="Ebene_1" data-name="Ebene 1" xmlns="http://www.w3.org/2000/svg" xmlns:xlink="http://www.w3.org/1999/xlink" viewBox="0 0 512 512">
  <defs>
    <style>
      .cls-1 {
        fill: url(#Unbenannter_Verlauf-2);
      }

      .cls-2 {
        fill: url(#Unbenannter_Verlauf);
      }

      .cls-3 {
        fill: url(#Unbenannter_Verlauf_3);
      }
    </style>
    <linearGradient id="Unbenannter_Verlauf" data-name="Unbenannter Verlauf" x1="369.13" y1="504.96" x2="369.13" y2="504.96" gradientUnits="userSpaceOnUse">
      <stop offset="0" stop-color="#999"/>
      <stop offset="1" stop-color="#e6e6e6"/>
    </linearGradient>
    <linearGradient id="Unbenannter_Verlauf-2" data-name="Unbenannter Verlauf" x1="240.97" y1="70.87" x2="240.96" y2="70.86" xlink:href="#Unbenannter_Verlauf"/>
    <linearGradient id="Unbenannter_Verlauf_3" data-name="Unbenannter Verlauf 3" x1="123" y1="418.41" x2="289.04" y2="130.82" gradientUnits="userSpaceOnUse">
      <stop offset="0" stop-color="#eae000"/>
      <stop offset="1" stop-color="#fff975"/>
    </linearGradient>
  </defs>
  <polygon class="cls-2" points="369.14 504.96 369.14 504.96 369.13 504.97 369.14 504.96"/>
  <polygon class="cls-1" points="240.96 70.86 240.96 70.86 240.97 70.87 240.96 70.86"/>
  <path class="cls-3" d="m472.98,335.02l-135.84-135.98c-9.38-9.39-24.58-9.39-33.96,0-9.38,9.39-9.38,24.6,0,33.99l94.84,94.93H80.05V24h-.03c0-13.25-10.75-24-24-24s-24,10.75-24,24h-.04v327.99c0,6.65,2.72,12.68,7.1,17.02,4.34,4.33,10.33,7.01,16.95,7.01h342.01l-94.84,94.93c-4.69,4.69-7.03,10.84-7.03,17s2.34,12.3,7.03,17c9.38,9.39,24.58,9.39,33.96,0l135.83-135.95c9.38-9.39,9.38-24.6,0-33.99Z"/>
</svg>