<?xml version="1.0" encoding="UTF-8"?><svg id="Ebene_1" xmlns="http://www.w3.org/2000/svg" xmlns:xlink="http://www.w3.org/1999/xlink" viewBox="0 0 512 512"><defs><style>.cls-1{fill:url(#Unbenannter_Verlauf_2);}.cls-2{fill:url(#Unbenannter_Verlauf_12);}</style><linearGradient id="Unbenannter_Verlauf_2" x1="153.35" y1="462.97" x2="407.14" y2="23.4" gradientUnits="userSpaceOnUse"><stop offset="0" stop-color="#00ff6a"/><stop offset="1" stop-color="#80ffb4"/></linearGradient><linearGradient id="Unbenannter_Verlauf_12" x1="129.73" y1="501.05" x2="332.26" y2="150.26" gradientUnits="userSpaceOnUse"><stop offset="0" stop-color="#999"/><stop offset="1" stop-color="#e6e6e6"/></linearGradient></defs><path class="cls-1" d="m96,428c-1.14,0-2.31-.16-3.46-.51-6.35-1.91-9.95-8.6-8.04-14.95,25.2-83.86,54.67-133.72,92.73-156.93,34.61-21.1,70.6-16.05,102.36-11.6,32.43,4.54,60.44,8.47,85.82-11.5,30.43-23.94,54.24-80.48,72.81-172.88,1.31-6.5,7.64-10.71,14.13-9.4,6.5,1.31,10.71,7.63,9.4,14.13-20.01,99.59-45.91,159.02-81.5,187.02-33.42,26.29-69.3,21.26-103.99,16.41-30.47-4.27-59.26-8.3-86.54,8.33-32.26,19.67-59.16,66.55-82.24,143.34-1.56,5.19-6.33,8.55-11.49,8.55Z"/><path class="cls-2" d="m512,440l-124.34-71.8v47.8H96V124.34h47.8L72,0,.2,124.34h47.8v315.66c0,13.25,10.75,24,24,24h315.66v47.8l124.34-71.8Z"/></svg>