<?xml version="1.0" encoding="UTF-8"?>
<svg id="Ebene_1" data-name="Ebene 1" xmlns="http://www.w3.org/2000/svg" xmlns:xlink="http://www.w3.org/1999/xlink" viewBox="0 0 512 512">
  <defs>
    <style>
      .cls-1 {
        fill: url(#Unbenannter_Verlauf_2-2);
      }

      .cls-2 {
        fill: url(#Unbenannter_Verlauf_2);
      }

      .cls-3 {
        fill: url(#Unbenannter_Verlauf_5);
      }
    </style>
    <linearGradient id="Unbenannter_Verlauf_2" data-name="Unbenannter Verlauf 2" x1="186" y1="-711.24" x2="326" y2="-468.76" gradientTransform="translate(0 -334) scale(1 -1)" gradientUnits="userSpaceOnUse">
      <stop offset="0" stop-color="#999"/>
      <stop offset="1" stop-color="#e6e6e6"/>
    </linearGradient>
    <linearGradient id="Unbenannter_Verlauf_2-2" data-name="Unbenannter Verlauf 2" x1="186" y1="-711.25" x2="326" y2="-468.75" xlink:href="#Unbenannter_Verlauf_2"/>
    <linearGradient id="Unbenannter_Verlauf_5" data-name="Unbenannter Verlauf 5" x1="-170.79" y1="-477.54" x2="218.79" y2="-702.46" gradientTransform="translate(-102 280) rotate(-90) scale(1 -1)" gradientUnits="userSpaceOnUse">
      <stop offset="0" stop-color="#00ff6a"/>
      <stop offset="1" stop-color="#80ffb4"/>
    </linearGradient>
  </defs>
  <path class="cls-2" d="m24,232h464c13.25,0,24,10.75,24,24h0c0,13.25-10.75,24-24,24H24c-13.25,0-24-10.75-24-24h0c0-13.25,10.75-24,24-24Z"/>
  <path class="cls-1" d="m24,232h464c13.25,0,24,10.75,24,24h0c0,13.25-10.75,24-24,24H24c-13.25,0-24-10.75-24-24h0c0-13.25,10.75-24,24-24Z"/>
  <path class="cls-3" d="m464,488V24c0-13.25,10.75-24,24-24h0c13.25,0,24,10.75,24,24v464c0,13.25-10.75,24-24,24h0c-13.25,0-24-10.75-24-24Z"/>
</svg>