<?xml version="1.0" encoding="UTF-8"?>
<svg id="Ebene_1" data-name="Ebene 1" xmlns="http://www.w3.org/2000/svg" xmlns:xlink="http://www.w3.org/1999/xlink" viewBox="0 0 512 512">
  <defs>
    <style>
      .cls-1 {
        fill: url(#Unbenannter_Verlauf_2);
      }

      .cls-2 {
        fill: url(#Unbenannter_Verlauf_5);
      }
    </style>
    <linearGradient id="Unbenannter_Verlauf_2" data-name="Unbenannter Verlauf 2" x1="450.79" y1="-702.46" x2="61.21" y2="-477.54" gradientTransform="translate(846) rotate(90) scale(1 -1)" gradientUnits="userSpaceOnUse">
      <stop offset="0" stop-color="#999"/>
      <stop offset="1" stop-color="#e6e6e6"/>
    </linearGradient>
    <linearGradient id="Unbenannter_Verlauf_5" data-name="Unbenannter Verlauf 5" x1="326" y1="-236.75" x2="186" y2="-479.25" gradientTransform="translate(512 846) rotate(-180) scale(1 -1)" gradientUnits="userSpaceOnUse">
      <stop offset="0" stop-color="#00ff6a"/>
      <stop offset="1" stop-color="#80ffb4"/>
    </linearGradient>
  </defs>
  <path class="cls-1" d="m280,24v464c0,13.25-10.75,24-24,24h0c-13.25,0-24-10.75-24-24V24c0-13.25,10.75-24,24-24h0c13.25,0,24,10.75,24,24Z"/>
  <path class="cls-2" d="m488,512H24c-13.25,0-24-10.75-24-24h0c0-13.25,10.75-24,24-24h464c13.25,0,24,10.75,24,24h0c0,13.25-10.75,24-24,24Z"/>
</svg>