<?xml version="1.0" encoding="UTF-8"?><svg id="Ebene_1" xmlns="http://www.w3.org/2000/svg" xmlns:xlink="http://www.w3.org/1999/xlink" viewBox="0 0 512 512"><defs><style>.cls-1{fill:url(#Unbenannter_Verlauf_110);fill-rule:evenodd;}</style><linearGradient id="Unbenannter_Verlauf_110" x1="128" y1="477.7" x2="384" y2="34.3" gradientUnits="userSpaceOnUse"><stop offset="0" stop-color="#29abe2"/><stop offset="1" stop-color="#80daff"/></linearGradient></defs><path class="cls-1" d="m510.01,224h-64.68c-7.79-46.42-32.22-87.19-66.96-115.95l32.34-56.01c-7.6-5.77-15.53-11.13-23.75-16.04l-6.2-3.58c-8.22-4.59-16.7-8.76-25.44-12.44l-32.35,56.03c-20.85-7.76-43.41-12.01-66.97-12.01s-46.11,4.25-66.97,12.01l-32.35-56.03c-8.74,3.68-17.23,7.85-25.44,12.44l-6.2,3.58c-8.23,4.91-16.16,10.26-23.75,16.04l32.34,56.01c-34.74,28.77-59.17,69.54-66.96,115.95H1.99c-1.31,10.48-1.99,21.16-1.99,32s.68,21.52,1.99,32h64.68c7.79,46.42,32.22,87.19,66.96,115.95l-32.34,56.01c7.6,5.77,15.53,11.13,23.75,16.04l6.2,3.58c8.22,4.59,16.7,8.76,25.44,12.44l32.35-56.03c20.85,7.76,43.41,12.01,66.97,12.01s46.11-4.25,66.97-12.01l32.35,56.03c8.74-3.68,17.23-7.85,25.44-12.44l6.2-3.58c8.23-4.91,16.16-10.26,23.75-16.04l-32.34-56.01c34.74-28.77,59.17-69.54,66.96-115.95h64.68c1.31-10.48,1.99-21.16,1.99-32s-.68-21.52-1.99-32Zm-254.01,96c-35.35,0-64-28.65-64-64s28.65-64,64-64,64,28.65,64,64-28.65,64-64,64Z"/></svg>