<?xml version="1.0" encoding="UTF-8"?><svg id="Ebene_1" xmlns="http://www.w3.org/2000/svg" xmlns:xlink="http://www.w3.org/1999/xlink" viewBox="0 0 512 512"><defs><style>.cls-1{fill:url(#Unbenannter_Verlauf_2);}</style><linearGradient id="Unbenannter_Verlauf_2" x1="149.6" y1="565.08" x2="429.47" y2="80.33" gradientUnits="userSpaceOnUse"><stop offset="0" stop-color="#00ff6a"/><stop offset="1" stop-color="#80ffb4"/></linearGradient></defs><path class="cls-1" d="m497.37,426.49c-35.16-99.24-129.79-170.34-241.04-170.48h0c4.31-.02,8.57-.24,12.77-.66,2.15-.22,4.29-.49,6.41-.81,1.06-.16,2.11-.34,3.16-.52,2.1-.38,4.18-.8,6.25-1.28,4.13-.95,8.18-2.11,12.15-3.45,7.93-2.68,15.51-6.12,22.66-10.23,3.57-2.05,7.04-4.28,10.38-6.66,3.35-2.38,6.57-4.92,9.67-7.6,1.55-1.34,3.06-2.72,4.55-4.13,1.48-1.41,2.93-2.86,4.34-4.34,1.41-1.48,2.79-3,4.13-4.55,1.34-1.55,2.65-3.13,3.91-4.74,1.27-1.61,2.5-3.26,3.69-4.93s2.34-3.38,3.45-5.11c.55-.87,1.1-1.74,1.63-2.62,1.07-1.76,2.1-3.55,3.08-5.36s1.93-3.65,2.83-5.52c1.35-2.8,2.6-5.65,3.74-8.56.38-.97.75-1.94,1.11-2.92.72-1.96,1.39-3.94,2.01-5.95,3.74-12.02,5.75-24.81,5.75-38.06,0-4.42-.22-8.78-.66-13.09-.22-2.15-.49-4.29-.81-6.41-.16-1.06-.34-2.11-.52-3.16-.38-2.1-.8-4.18-1.28-6.25-.71-3.1-1.54-6.15-2.48-9.16-3.12-10.02-7.43-19.51-12.78-28.31-.53-.88-1.08-1.75-1.63-2.62-3.33-5.19-7.02-10.13-11.05-14.78-1.34-1.55-2.72-3.06-4.13-4.55-1.41-1.48-2.86-2.93-4.34-4.34-1.48-1.41-3-2.79-4.55-4.13-4.64-4.02-9.58-7.72-14.78-11.05-.87-.55-1.74-1.1-2.62-1.63-8.8-5.35-18.29-9.66-28.31-12.78-3.01-.93-6.06-1.76-9.16-2.48-2.06-.48-4.15-.9-6.25-1.28-1.05-.19-2.11-.36-3.16-.52-2.12-.32-4.25-.6-6.41-.81-4.3-.44-8.67-.66-13.09-.66-13.25,0-26.04,2.01-38.06,5.75-2,.62-3.99,1.29-5.95,2.01-.98.36-1.95.73-2.92,1.11-2.91,1.15-5.76,2.4-8.56,3.74-1.87.9-3.71,1.84-5.52,2.83s-3.6,2.01-5.36,3.08c-.88.53-1.75,1.08-2.62,1.63-1.73,1.11-3.43,2.26-5.11,3.45s-3.32,2.42-4.93,3.69c-1.61,1.27-3.19,2.57-4.74,3.91-1.55,1.34-3.06,2.72-4.55,4.13-1.48,1.41-2.93,2.86-4.34,4.34-1.41,1.48-2.79,3-4.13,4.55-2.68,3.1-5.22,6.32-7.6,9.67-2.38,3.35-4.6,6.81-6.66,10.38-4.11,7.15-7.55,14.73-10.23,22.66-1.34,3.97-2.49,8.02-3.45,12.15-.48,2.06-.9,4.15-1.28,6.25-.19,1.05-.36,2.11-.52,3.16-.32,2.12-.6,4.25-.81,6.41-.44,4.3-.66,8.67-.66,13.09,0,70.58,57.13,127.82,127.68,128h0c-111.26.15-205.88,71.25-241.04,170.49-14.78,41.71,16.03,85.51,60.28,85.51h362.17c44.25,0,75.06-43.8,60.28-85.51Z"/></svg>