<?xml version="1.0" encoding="UTF-8"?>
<svg id="Ebene_1" data-name="Ebene 1" xmlns="http://www.w3.org/2000/svg" xmlns:xlink="http://www.w3.org/1999/xlink" viewBox="0 0 512 512">
  <defs>
    <style>
      .cls-1 {
        fill: url(#Unbenannter_Verlauf_12-2);
      }

      .cls-2 {
        fill: url(#Unbenannter_Verlauf_12);
      }
    </style>
    <linearGradient id="Unbenannter_Verlauf_12" data-name="Unbenannter Verlauf 12" x1="82.87" y1="547.09" x2="254.8" y2="249.31" gradientUnits="userSpaceOnUse">
      <stop offset="0" stop-color="#999"/>
      <stop offset="1" stop-color="#e6e6e6"/>
    </linearGradient>
    <linearGradient id="Unbenannter_Verlauf_12-2" data-name="Unbenannter Verlauf 12" x1="297.14" y1="388.18" x2="478.48" y2="74.09" xlink:href="#Unbenannter_Verlauf_12"/>
  </defs>
  <path class="cls-2" d="m220.16,471.68l-14.78-38.84h-125.8l-14.78,39.68c-5.77,15.48-10.7,25.93-14.78,31.35-4.08,5.42-10.77,8.13-20.05,8.13-7.88,0-14.85-2.89-20.9-8.65-6.05-5.77-9.08-12.31-9.08-19.63,0-4.22.7-8.58,2.11-13.09,1.41-4.5,3.73-10.77,6.97-18.79l79.16-200.95c2.25-5.77,4.96-12.7,8.13-20.79,3.17-8.09,6.54-14.81,10.13-20.16,3.59-5.35,8.3-9.67,14.14-12.98,5.84-3.3,13.05-4.96,21.64-4.96s16.01,1.66,21.85,4.96c5.84,3.31,10.55,7.57,14.14,12.77,3.59,5.21,6.61,10.8,9.08,16.78,2.46,5.98,5.59,13.97,9.39,23.96l80.84,199.68c6.33,15.2,9.5,26.25,9.5,33.14s-2.99,13.76-8.97,19.74c-5.98,5.98-13.19,8.97-21.64,8.97-4.93,0-9.15-.88-12.66-2.64-3.52-1.76-6.47-4.15-8.87-7.18-2.39-3.02-4.96-7.67-7.7-13.93-2.74-6.26-5.1-11.78-7.07-16.57Zm-124.12-85.91h92.45l-46.65-127.7-45.8,127.7Z"/>
  <path class="cls-1" d="m372.35,230.75h-110.75l-13.18,30.52c-4.32,10.17-6.47,18.58-6.47,25.2,0,8.79,3.54,15.26,10.64,19.42,4.16,2.47,14.41,4.32,30.75,5.55v8.55h-104.28v-8.55c11.25-1.69,20.5-6.36,27.75-13.99,7.24-7.63,16.18-23.39,26.82-47.28L345.76,0h4.39l113.06,257.11c10.79,24.36,19.65,39.69,26.59,46.01,5.24,4.78,12.64,7.55,22.2,8.32v8.55h-151.68v-8.55h6.24c12.17,0,20.73-1.69,25.66-5.09,3.39-2.46,5.09-6.01,5.09-10.64,0-2.77-.46-5.62-1.39-8.55-.31-1.39-2.62-7.17-6.94-17.34l-16.65-39.08Zm-7.86-17.11l-46.71-107.98-48.09,107.98h94.8Z"/>
</svg>