<?xml version="1.0" encoding="UTF-8"?>
<svg id="Ebene_1" data-name="Ebene 1" xmlns="http://www.w3.org/2000/svg" xmlns:xlink="http://www.w3.org/1999/xlink" viewBox="0 0 512 512">
  <defs>
    <style>
      .cls-1 {
        fill: url(#Unbenannter_Verlauf_12-2);
      }

      .cls-2 {
        mask: url(#mask);
      }

      .cls-3 {
        fill: url(#Unbenannter_Verlauf_9);
      }

      .cls-4 {
        fill: url(#Unbenannter_Verlauf_12);
      }
    </style>
    <linearGradient id="Unbenannter_Verlauf_9" data-name="Unbenannter Verlauf 9" x1="45" y1="256" x2="467" y2="256" gradientUnits="userSpaceOnUse">
      <stop offset="0" stop-color="#fff"/>
      <stop offset="1" stop-color="#000"/>
    </linearGradient>
    <mask id="mask" x="40" y="40" width="432" height="432" maskUnits="userSpaceOnUse">
      <rect class="cls-3" x="45" y="45" width="422" height="422"/>
    </mask>
    <linearGradient id="Unbenannter_Verlauf_12" data-name="Unbenannter Verlauf 12" x1="147.98" y1="443.09" x2="364.02" y2="68.91" gradientUnits="userSpaceOnUse">
      <stop offset="0" stop-color="#999"/>
      <stop offset="1" stop-color="#e6e6e6"/>
    </linearGradient>
    <linearGradient id="Unbenannter_Verlauf_12-2" data-name="Unbenannter Verlauf 12" x1="127.98" y1="477.74" x2="384.02" y2="34.26" xlink:href="#Unbenannter_Verlauf_12"/>
  </defs>
  <g class="cls-2">
    <circle class="cls-4" cx="256" cy="256" r="216"/>
  </g>
  <path class="cls-1" d="m256,48c55.56,0,107.79,21.64,147.08,60.92s60.92,91.52,60.92,147.08-21.64,107.79-60.92,147.08-91.52,60.92-147.08,60.92-107.79-21.64-147.08-60.92-60.92-91.52-60.92-147.08,21.64-107.79,60.92-147.08,91.52-60.92,147.08-60.92m0-48C114.62,0,0,114.62,0,256s114.62,256,256,256,256-114.62,256-256S397.38,0,256,0h0Z"/>
</svg>