<?xml version="1.0" encoding="UTF-8"?>
<svg id="Ebene_1" data-name="Ebene 1" xmlns="http://www.w3.org/2000/svg" xmlns:xlink="http://www.w3.org/1999/xlink" viewBox="0 0 512 512">
  <defs>
    <style>
      .cls-1 {
        fill: url(#Unbenannter_Verlauf);
      }
    </style>
    <linearGradient id="Unbenannter_Verlauf" data-name="Unbenannter Verlauf" x1="127.98" y1="477.74" x2="384.02" y2="34.26" gradientUnits="userSpaceOnUse">
      <stop offset="0" stop-color="#999"/>
      <stop offset="1" stop-color="#e6e6e6"/>
    </linearGradient>
  </defs>
  <path class="cls-1" d="m256,0C114.62,0,0,114.62,0,256s114.62,256,256,256,256-114.62,256-256S397.38,0,256,0Zm206.63,232h-59.2c-3.24-60.23-18.54-114.39-41.7-155.21,14.9,8.82,28.79,19.57,41.36,32.14,33.57,33.57,54.24,76.6,59.55,123.08ZM192.85,99.01c14.61-25.26,31.82-42.13,48.82-48.34-5.3,42.18-8.91,107.17-9.56,181.33h-75.46c1.33-22.2,4.52-43.73,9.54-64.24,6.37-26.05,15.34-49.18,26.66-68.75Zm39.26,180.99c.65,74.17,4.26,139.15,9.56,181.33-17-6.22-34.21-23.08-48.82-48.34-11.32-19.56-20.28-42.69-26.66-68.75-5.02-20.51-8.21-42.04-9.54-64.24h75.46Zm87.05,132.99c-14.61,25.26-31.82,42.13-48.82,48.34,5.3-42.18,8.91-107.16,9.56-181.33h75.46c-1.33,22.2-4.52,43.73-9.54,64.24-6.37,26.05-15.34,49.18-26.66,68.75Zm-39.26-180.99c-.65-74.17-4.26-139.15-9.56-181.33,17,6.22,34.21,23.08,48.82,48.34,11.32,19.56,20.28,42.69,26.66,68.75,5.02,20.51,8.21,42.04,9.54,64.24h-75.46ZM108.92,108.92c12.56-12.56,26.46-23.31,41.36-32.14-23.15,40.82-38.46,94.99-41.7,155.21h-59.2c5.31-46.48,25.98-89.51,59.55-123.08Zm-59.55,171.08h59.2c3.24,60.23,18.54,114.39,41.7,155.21-14.9-8.82-28.79-19.57-41.36-32.14-33.57-33.57-54.24-76.6-59.55-123.08Zm353.7,123.08c-12.56,12.56-26.46,23.31-41.36,32.14,23.15-40.82,38.46-94.99,41.7-155.21h59.2c-5.31,46.48-25.98,89.51-59.55,123.08Z"/>
</svg>