<?xml version="1.0" encoding="UTF-8"?><svg id="Ebene_1" xmlns="http://www.w3.org/2000/svg" xmlns:xlink="http://www.w3.org/1999/xlink" viewBox="0 0 512 512"><defs><style>.cls-1{fill:url(#Unbenannter_Verlauf_3);}</style><linearGradient id="Unbenannter_Verlauf_3" x1="75.44" y1="485.36" x2="388.23" y2="-56.42" gradientUnits="userSpaceOnUse"><stop offset="0" stop-color="#f66"/><stop offset="1" stop-color="#ffb3b3"/></linearGradient></defs><path class="cls-1" d="m485.95,0v138.57h-13.59c-8.06-31.96-16.99-54.94-26.81-68.91-9.82-13.97-23.29-25.11-40.4-33.42-9.57-4.53-26.31-6.8-50.22-6.8h-38.14v394.95c0,26.18,1.45,42.54,4.34,49.09,2.89,6.55,8.56,12.27,16.99,17.18,8.43,4.91,19.95,7.36,34.55,7.36h16.99v13.97H121.58v-13.97h16.99c14.85,0,26.81-2.64,35.87-7.93,6.54-3.52,11.7-9.56,15.48-18.12,2.77-6.04,4.15-21.9,4.15-47.57V29.45h-37c-34.49,0-59.53,7.3-75.14,21.9-21.9,20.39-35.75,49.46-41.53,87.22h-14.35V0h459.89Z"/></svg>