<?xml version="1.0" encoding="UTF-8"?>
<svg id="Ebene_1" data-name="Ebene 1" xmlns="http://www.w3.org/2000/svg" xmlns:xlink="http://www.w3.org/1999/xlink" viewBox="0 0 512 512">
  <defs>
    <style>
      .cls-1 {
        fill: url(#Unbenannter_Verlauf_12-5);
      }

      .cls-2 {
        fill: url(#Unbenannter_Verlauf_12-3);
      }

      .cls-3 {
        fill: url(#Unbenannter_Verlauf_12-4);
      }

      .cls-4 {
        fill: url(#Unbenannter_Verlauf_12-2);
      }

      .cls-5 {
        fill: url(#Unbenannter_Verlauf_12);
      }
    </style>
    <linearGradient id="Unbenannter_Verlauf_12" data-name="Unbenannter Verlauf 12" x1="132.19" y1="207.58" x2="466.58" y2="85.87" gradientTransform="translate(-104.66 224.45) rotate(-40)" gradientUnits="userSpaceOnUse">
      <stop offset="0" stop-color="#999"/>
      <stop offset="1" stop-color="#e6e6e6"/>
    </linearGradient>
    <linearGradient id="Unbenannter_Verlauf_12-2" data-name="Unbenannter Verlauf 12" x1="45.42" y1="426.13" x2="379.81" y2="304.42" xlink:href="#Unbenannter_Verlauf_12"/>
    <linearGradient id="Unbenannter_Verlauf_12-3" data-name="Unbenannter Verlauf 12" x1="-76.58" y1="283.02" x2="108.4" y2="215.69" xlink:href="#Unbenannter_Verlauf_12"/>
    <linearGradient id="Unbenannter_Verlauf_12-4" data-name="Unbenannter Verlauf 12" x1="403.6" y1="296.3" x2="588.58" y2="228.98" xlink:href="#Unbenannter_Verlauf_12"/>
    <linearGradient id="Unbenannter_Verlauf_12-5" data-name="Unbenannter Verlauf 12" x1="219.21" y1="322.84" x2="294.95" y2="191.65" gradientTransform="matrix(1,0,0,1,0,0)" xlink:href="#Unbenannter_Verlauf_12"/>
  </defs>
  <g>
    <g>
      <path class="cls-5" d="m51.78,216.42c8.97-46.78,33.53-88.72,70.52-119.76,42.25-35.45,96.89-52.68,151.83-47.87,48.1,4.21,92.28,24.48,126.46,57.65,8.85,8.59,22.74,9.15,32.18,1.22h.01c10.95-9.2,11.42-25.79,1.16-35.73C340.91-18.23,192.87-25.21,91.45,59.89,44.6,99.2,15.37,151.73,4.64,207.44c-2.69,13.97,7.3,27.21,21.47,28.45h0c12.29,1.07,23.34-7.35,25.66-19.46Z"/>
      <path class="cls-4" d="m485.89,276.11c14.18,1.24,24.17,14.48,21.47,28.45-10.73,55.71-39.96,108.23-86.81,147.55-101.42,85.1-249.46,78.13-342.5-12.04-10.26-9.94-9.78-26.54,1.16-35.72h.01c9.45-7.94,23.33-7.38,32.18,1.21,34.18,33.17,78.36,53.44,126.46,57.65,54.95,4.81,109.58-12.42,151.83-47.87,36.99-31.04,61.55-72.98,70.52-119.76,2.32-12.11,13.38-20.54,25.66-19.46h0Z"/>
    </g>
    <path class="cls-2" d="m164.4,384.55c-4.71,3.95-10.92,6.1-17.52,5.52l-87.67-7.67-7.67,87.67c-1.16,13.21-12.8,22.97-26,21.82-13.2-1.16-22.97-12.8-21.82-26l9.76-111.57c1.16-13.2,12.8-22.97,26-21.82l111.57,9.76c13.2,1.16,22.97,12.8,21.82,26-.58,6.6-3.78,12.35-8.48,16.29Z"/>
    <path class="cls-3" d="m490.03,173.98c-4.71,3.95-10.92,6.1-17.52,5.52l-111.57-9.76c-13.2-1.16-22.97-12.8-21.82-26,1.16-13.2,12.8-22.97,26-21.82l87.67,7.67,7.67-87.67c1.16-13.2,12.8-22.97,26-21.82,13.2,1.16,22.97,12.8,21.82,26l-9.76,111.57c-.58,6.6-3.78,12.34-8.48,16.29Z"/>
  </g>
  <path class="cls-1" d="m213.15,293.83l27.69-40.44-23.3-35.97c-2.2-3.49-3.84-6.49-4.94-8.99s-1.65-4.91-1.65-7.22,1.06-4.49,3.17-6.37,4.69-2.83,7.73-2.83c3.49,0,6.21,1.03,8.15,3.08s4.63,5.87,8.06,11.44l18.58,30.06,19.84-30.06c1.63-2.53,3.03-4.7,4.18-6.5s2.27-3.29,3.34-4.47,2.27-2.07,3.59-2.66,2.86-.89,4.6-.89c3.15,0,5.73.94,7.73,2.83s3,4.12,3,6.71c0,3.77-2.17,8.89-6.5,15.37l-24.4,36.47,26.26,40.44c2.36,3.55,4.08,6.49,5.15,8.82s1.6,4.55,1.6,6.63c0,1.97-.48,3.77-1.44,5.4s-2.31,2.93-4.05,3.88-3.72,1.44-5.91,1.44c-2.36,0-4.36-.49-5.99-1.48s-2.96-2.21-3.97-3.67-2.9-4.31-5.66-8.53l-21.78-34.28-23.13,35.29c-1.8,2.81-3.08,4.78-3.84,5.91s-1.67,2.22-2.74,3.29-2.34,1.91-3.8,2.53-3.18.93-5.15.93c-3.04,0-5.56-.93-7.56-2.79s-3-4.56-3-8.11c0-4.17,2.05-9.26,6.16-15.28Z"/>
</svg>