<?xml version="1.0" encoding="UTF-8"?>
<svg id="Ebene_1" data-name="Ebene 1" xmlns="http://www.w3.org/2000/svg" xmlns:xlink="http://www.w3.org/1999/xlink" viewBox="0 0 330 330">
  <defs>
    <style>
      .cls-1 {
        fill: url(#Unbenannter_Verlauf_12);
      }
    </style>
    <linearGradient id="Unbenannter_Verlauf_12" data-name="Unbenannter Verlauf 12" x1="287.66" y1="-14.33" x2="71.03" y2="360.89" gradientTransform="translate(330 330) rotate(-180)" gradientUnits="userSpaceOnUse">
      <stop offset="0" stop-color="#999"/>
      <stop offset="1" stop-color="#e6e6e6"/>
    </linearGradient>
  </defs>
  <path class="cls-1" d="m23.95,330h191.61c13.23,0,23.95-10.72,23.95-23.95,0-13.23-10.72-23.95-23.95-23.95H81.77S322.98,40.89,322.98,40.89c9.35-9.35,9.35-24.52,0-33.87s-24.52-9.35-33.87,0l-59.36,59.36h0s-68.34,68.34-68.34,68.34c0,0,0,0,0,0l-113.51,113.51V114.44c0-6.61-2.68-12.6-7.02-16.94-4.33-4.33-10.32-7.01-16.94-7.02C10.72,90.49,0,101.21,0,114.44v191.61c0,13.23,10.72,23.95,23.95,23.95Z"/>
</svg>