<?xml version="1.0" encoding="UTF-8"?>
<svg id="Ebene_1" data-name="Ebene 1" xmlns="http://www.w3.org/2000/svg" xmlns:xlink="http://www.w3.org/1999/xlink" viewBox="0 0 512 512">
  <defs>
    <style>
      .cls-1 {
        fill: url(#Unbenannter_Verlauf);
      }
    </style>
    <linearGradient id="Unbenannter_Verlauf" data-name="Unbenannter Verlauf" x1="450.79" y1="-46.46" x2="61.22" y2="178.46" gradientTransform="translate(190 0) rotate(90) scale(1 -1)" gradientUnits="userSpaceOnUse">
      <stop offset="0" stop-color="#999"/>
      <stop offset="1" stop-color="#e6e6e6"/>
    </linearGradient>
  </defs>
  <path class="cls-1" d="m232,81.94l-94.79,94.79c-9.37,9.37-24.57,9.37-33.94,0s-9.37-24.57,0-33.94L239.02,7.03c9.37-9.37,24.57-9.37,33.94,0l135.77,135.76c9.37,9.37,9.37,24.57,0,33.94-4.69,4.69-10.83,7.03-16.97,7.03s-12.28-2.34-16.97-7.03l-94.79-94.79v348.12l94.79-94.79c9.37-9.37,24.57-9.37,33.94,0,9.37,9.37,9.37,24.57,0,33.94l-135.76,135.76c-9.37,9.37-24.57,9.37-33.94,0l-135.76-135.76c-9.37-9.37-9.37-24.57,0-33.94,4.69-4.69,10.83-7.03,16.97-7.03s12.28,2.34,16.97,7.03l94.79,94.79V81.94h0Z"/>
</svg>