<?xml version="1.0" encoding="UTF-8"?>
<svg id="Ebene_1" data-name="Ebene 1" xmlns="http://www.w3.org/2000/svg" xmlns:xlink="http://www.w3.org/1999/xlink" viewBox="0 0 320 448">
  <defs>
    <style>
      .cls-1 {
        fill: url(#Unbenannter_Verlauf);
      }
    </style>
    <linearGradient id="Unbenannter_Verlauf" data-name="Unbenannter Verlauf" x1="237.03" y1="409.26" x2="39.81" y2="67.66" gradientTransform="translate(320 -2) rotate(-180) scale(1 -1)" gradientUnits="userSpaceOnUse">
      <stop offset="0" stop-color="#999"/>
      <stop offset="1" stop-color="#e6e6e6"/>
    </linearGradient>
  </defs>
  <path class="cls-1" d="m7.03,305.13l135.96,135.84c9.39,9.38,24.6,9.38,33.99,0l135.97-135.84c9.39-9.38,9.39-24.58,0-33.96-9.39-9.38-24.6-9.38-33.99,0l-94.93,94.84V24.01c0-13.26-10.76-24.01-24.03-24.01s-24.03,10.75-24.03,24.01v84.16h0v96.9h0v160.95l-94.93-94.84c-4.69-4.69-10.84-7.03-17-7.03s-12.3,2.34-17,7.03c-9.39,9.38-9.39,24.58,0,33.96h-.01Z"/>
</svg>