<?xml version="1.0" encoding="UTF-8"?>
<svg id="Ebene_1" data-name="Ebene 1" xmlns="http://www.w3.org/2000/svg" xmlns:xlink="http://www.w3.org/1999/xlink" viewBox="0 0 448 320">
  <defs>
    <style>
      .cls-1 {
        fill: url(#Unbenannter_Verlauf);
      }
    </style>
    <linearGradient id="Unbenannter_Verlauf" data-name="Unbenannter Verlauf" x1="301.03" y1="345.26" x2="103.81" y2="3.66" gradientTransform="translate(386 384) rotate(-90) scale(1 -1)" gradientUnits="userSpaceOnUse">
      <stop offset="0" stop-color="#999"/>
      <stop offset="1" stop-color="#e6e6e6"/>
    </linearGradient>
  </defs>
  <path class="cls-1" d="m142.87,7.03L7.03,142.99c-9.38,9.39-9.38,24.6,0,33.99l135.84,135.97c9.38,9.39,24.58,9.39,33.96,0,9.38-9.39,9.38-24.6,0-33.99l-94.84-94.93h342c13.26,0,24.01-10.76,24.01-24.03s-10.75-24.03-24.01-24.03H81.98l94.84-94.93c4.69-4.69,7.03-10.84,7.03-17s-2.34-12.3-7.03-17c-9.38-9.39-24.58-9.39-33.96,0h0Z"/>
</svg>