<?xml version="1.0" encoding="UTF-8"?>
<svg id="Ebene_1" data-name="Ebene 1" xmlns="http://www.w3.org/2000/svg" xmlns:xlink="http://www.w3.org/1999/xlink" viewBox="0 0 448 496">
  <defs>
    <style>
      .cls-1 {
        fill: url(#Unbenannter_Verlauf_12-2);
      }

      .cls-2 {
        fill: url(#Unbenannter_Verlauf_12);
      }
    </style>
    <linearGradient id="Unbenannter_Verlauf_12" data-name="Unbenannter Verlauf 12" x1="267.1" y1="350.09" x2="9.39" y2="201.3" gradientTransform="translate(512 0) rotate(90)" gradientUnits="userSpaceOnUse">
      <stop offset="0" stop-color="#999"/>
      <stop offset="1" stop-color="#e6e6e6"/>
    </linearGradient>
    <linearGradient id="Unbenannter_Verlauf_12-2" data-name="Unbenannter Verlauf 12" x1="486.19" y1="374.85" x2="228.37" y2="226" xlink:href="#Unbenannter_Verlauf_12"/>
  </defs>
  <path class="cls-2" d="m304.97,312.5l135.76-135.76c9.37-9.37,9.37-24.57,0-33.94L304.97,7.03c-9.37-9.37-24.57-9.37-33.94,0-9.37,9.37-9.37,24.57,0,33.94l94.79,94.79H24c-13.25,0-24,10.75-24,24s10.75,24,24,24h84.12l17.71-17.71c18.72-18.71,49.17-18.71,67.88,0,5.09,5.09,8.9,11.12,11.26,17.71h160.86l-94.79,94.79c-4.69,4.69-7.03,10.83-7.03,16.97s2.34,12.28,7.03,16.97c9.37,9.37,24.57,9.37,33.94,0Z"/>
  <path class="cls-1" d="m176.74,488.5c9.37-9.37,9.37-24.57,0-33.94l-94.79-94.79h342.06c13.25,0,24-10.75,24-24s-10.75-24-24-24h-84.35l-17.71,17.71c-18.72,18.71-49.17,18.71-67.88,0-5.09-5.09-8.9-11.12-11.25-17.71H81.94l94.79-94.79c4.69-4.69,7.03-10.83,7.03-16.97s-2.34-12.28-7.03-16.97c-9.37-9.37-24.57-9.37-33.94,0L7.03,318.79c-9.37,9.37-9.37,24.57,0,33.94l135.76,135.76c9.37,9.37,24.57,9.37,33.94,0Z"/>
</svg>