<?xml version="1.0" encoding="UTF-8"?>
<svg id="Ebene_1" data-name="Ebene 1" xmlns="http://www.w3.org/2000/svg" xmlns:xlink="http://www.w3.org/1999/xlink" viewBox="0 0 512 512">
  <defs>
    <style>
      .cls-1 {
        fill: url(#Unbenannter_Verlauf_12-2);
      }

      .cls-2 {
        fill: url(#Unbenannter_Verlauf_12);
      }
    </style>
    <linearGradient id="Unbenannter_Verlauf_12" data-name="Unbenannter Verlauf 12" x1="106.82" y1="339.54" x2="277.18" y2="44.46" gradientUnits="userSpaceOnUse">
      <stop offset="0" stop-color="#999"/>
      <stop offset="1" stop-color="#e6e6e6"/>
    </linearGradient>
    <linearGradient id="Unbenannter_Verlauf_12-2" data-name="Unbenannter Verlauf 12" x1="250.1" y1="541.94" x2="477.26" y2="148.5" xlink:href="#Unbenannter_Verlauf_12"/>
  </defs>
  <path class="cls-2" d="m288,48c26.47,0,48,21.53,48,48v192c0,26.47-21.53,48-48,48H96c-26.47,0-48-21.53-48-48V96c0-26.47,21.53-48,48-48h192m0-48H96C42.98,0,0,42.98,0,96v192c0,53.02,42.98,96,96,96h192c53.02,0,96-42.98,96-96V96c0-53.02-42.98-96-96-96h0Z"/>
  <path class="cls-1" d="m416,128h-16v48h16c26.47,0,48,21.53,48,48v192c0,26.47-21.53,48-48,48h-192c-26.47,0-48-21.53-48-48v-16h-48v16c0,53.02,42.98,96,96,96h192c53.02,0,96-42.98,96-96v-192c0-53.02-42.98-96-96-96Z"/>
</svg>