<?xml version="1.0" encoding="UTF-8"?><svg id="Ebene_1" xmlns="http://www.w3.org/2000/svg" xmlns:xlink="http://www.w3.org/1999/xlink" viewBox="0 0 512 512"><defs><style>.cls-1{fill:url(#Unbenannter_Verlauf_15);}.cls-1,.cls-2{fill-rule:evenodd;}.cls-2{fill:url(#Unbenannter_Verlauf_15-2);}</style><linearGradient id="Unbenannter_Verlauf_15" x1="162.22" y1="589.26" x2="260.07" y2="419.77" gradientTransform="translate(232.26 -99.75) rotate(29.56)" gradientUnits="userSpaceOnUse"><stop offset="0" stop-color="#ff8000"/><stop offset="1" stop-color="#ffc080"/></linearGradient><linearGradient id="Unbenannter_Verlauf_15-2" x1="248.17" y1="321.23" x2="381.8" y2="89.78" gradientTransform="translate(152.9 -180.36) rotate(24.75) scale(1 1.27)" xlink:href="#Unbenannter_Verlauf_15"/></defs><path class="cls-1" d="m143.33,395.33c17.07-30.09,55.29-40.65,85.38-23.58,30.09,17.07,40.94,55.46,23.58,85.38-30.09,51.89-166.9,40.35-166.9,40.35,0,0,40.87-72.06,57.94-102.15Z"/><path class="cls-2" d="m250.43,357.36h0c-19.94-9.19-28.42-32.97-18.81-52.71L364.52,31.81c7.79-15.99,26.93-22.82,43.07-15.37h0c16.15,7.44,23.38,26.43,16.29,42.74l-121.16,278.26c-8.76,20.13-32.36,29.12-52.29,19.93Z"/></svg>