<?xml version="1.0" encoding="UTF-8"?><svg id="Ebene_1" xmlns="http://www.w3.org/2000/svg" xmlns:xlink="http://www.w3.org/1999/xlink" viewBox="0 0 512 512"><defs><style>.cls-1{fill:url(#Unbenannter_Verlauf_2);}.cls-2{filter:url(#drop-shadow-1);}</style><filter id="drop-shadow-1" filterUnits="userSpaceOnUse"><feOffset dx="96" dy="96"/><feGaussianBlur result="blur" stdDeviation="16"/><feFlood flood-color="#00cc52" flood-opacity="1"/><feComposite in2="blur" operator="in"/><feComposite in="SourceGraphic"/></filter><linearGradient id="Unbenannter_Verlauf_2" x1="62.9" y1="362.12" x2="296.27" y2="-42.09" gradientUnits="userSpaceOnUse"><stop offset="0" stop-color="#00ff6a"/><stop offset="1" stop-color="#80ffb4"/></linearGradient></defs><g class="cls-2"><path class="cls-1" d="m369.18,0v103.39h-10.14c-6.01-23.85-12.68-40.99-20-51.41-7.32-10.42-17.37-18.73-30.14-24.93-7.14-3.38-19.63-5.07-37.47-5.07h-28.45v294.67c0,19.53,1.08,31.74,3.24,36.62,2.16,4.89,6.38,9.16,12.68,12.82,6.29,3.66,14.88,5.49,25.78,5.49h12.68v10.42H97.33v-10.42h12.68c11.08,0,20-1.97,26.76-5.92,4.88-2.63,8.73-7.14,11.55-13.52,2.06-4.51,3.1-16.34,3.1-35.5V21.97h-27.61c-25.73,0-44.42,5.45-56.06,16.34-16.34,15.21-26.67,36.9-30.99,65.07h-10.7V0h343.12Z"/></g></svg>