<?xml version="1.0" encoding="UTF-8"?><svg id="Ebene_1" xmlns="http://www.w3.org/2000/svg" xmlns:xlink="http://www.w3.org/1999/xlink" viewBox="0 0 512 512"><defs><style>.cls-1{fill:url(#Unbenannter_Verlauf_3);}</style><linearGradient id="Unbenannter_Verlauf_3" x1="92.86" y1="538.57" x2="419.14" y2="-26.57" gradientUnits="userSpaceOnUse"><stop offset="0" stop-color="#f66"/><stop offset="1" stop-color="#ffb3b3"/></linearGradient></defs><path class="cls-1" d="m448,48c8.82,0,16,7.18,16,16v384c0,8.82-7.18,16-16,16H64c-8.82,0-16-7.18-16-16V64c0-8.82,7.18-16,16-16h384m0-48H64C28.65,0,0,28.65,0,64v384c0,35.35,28.65,64,64,64h384c35.35,0,64-28.65,64-64V64c0-35.35-28.65-64-64-64h0Z"/></svg>