<?xml version="1.0" encoding="UTF-8"?><svg id="Ebene_1" xmlns="http://www.w3.org/2000/svg" xmlns:xlink="http://www.w3.org/1999/xlink" viewBox="0 0 512 512"><defs><style>.cls-1{fill:url(#Unbenannter_Verlauf_12);}</style><linearGradient id="Unbenannter_Verlauf_12" x1="143.54" y1="450.79" x2="368.46" y2="61.21" gradientUnits="userSpaceOnUse"><stop offset="0" stop-color="#999"/><stop offset="1" stop-color="#e6e6e6"/></linearGradient></defs><path class="cls-1" d="m488,232h-208V24c0-13.25-10.75-24-24-24h0c-13.25,0-24,10.75-24,24v208H24c-13.25,0-24,10.75-24,24h0c0,13.25,10.75,24,24,24h208v208c0,13.25,10.75,24,24,24h0c13.25,0,24-10.75,24-24v-208h208c13.25,0,24-10.75,24-24h0c0-13.25-10.75-24-24-24Z"/></svg>