<?xml version="1.0" encoding="UTF-8"?>
<svg id="Ebene_1" data-name="Ebene 1" xmlns="http://www.w3.org/2000/svg" xmlns:xlink="http://www.w3.org/1999/xlink" viewBox="0 0 512 512">
  <defs>
    <style>
      .cls-1 {
        fill: url(#Unbenannter_Verlauf_12);
      }
    </style>
    <linearGradient id="Unbenannter_Verlauf_12" data-name="Unbenannter Verlauf 12" x1="168.86" y1="501.43" x2="412.6" y2="79.26" gradientUnits="userSpaceOnUse">
      <stop offset="0" stop-color="#999"/>
      <stop offset="1" stop-color="#e6e6e6"/>
    </linearGradient>
  </defs>
  <path class="cls-1" d="m456.5,328.85l-37.5,21.65,17.23,9.95c-33.25,56.92-91.62,94.6-156.23,102.15v-222.6h112c13.25,0,24-10.75,24-24s-10.75-24-24-24h-112v-52.11c27.96-9.89,48-36.54,48-67.89,0-39.76-32.24-72-72-72s-72,32.24-72,72c0,31.35,20.04,58,48,67.89v52.11h-112c-13.25,0-24,10.75-24,24s10.75,24,24,24h112v222.6c-64.62-7.55-122.98-45.23-156.23-102.15l17.23-9.95-37.5-21.65-37.5-21.65v86.6l16.2-9.35c22.13,37.97,53.82,69.83,91.69,92.15,32.4,19.1,68.68,30.76,106.12,34.27v1.13h48v-1.13c37.43-3.51,73.72-15.17,106.12-34.27,37.87-22.32,69.56-54.18,91.69-92.15l16.2,9.35v-86.6l-37.5,21.65ZM256,48c13.23,0,24,10.77,24,24s-10.77,24-24,24-24-10.77-24-24,10.77-24,24-24Z"/>
</svg>