<?xml version="1.0" encoding="UTF-8"?><svg id="Ebene_1" xmlns="http://www.w3.org/2000/svg" xmlns:xlink="http://www.w3.org/1999/xlink" viewBox="0 0 512 512"><defs><style>.cls-1{fill:url(#Unbenannter_Verlauf_110);}</style><linearGradient id="Unbenannter_Verlauf_110" x1="171" y1="394.45" x2="337.79" y2="105.56" gradientUnits="userSpaceOnUse"><stop offset="0" stop-color="#29abe2"/><stop offset="1" stop-color="#80daff"/></linearGradient></defs><path class="cls-1" d="m48,316h416c26.51,0,48-21.49,48-48v-48c0-13.25-10.75-24-24-24h0c-13.25,0-24,10.75-24,24v40c0,4.42-3.58,8-8,8H56c-4.42,0-8-3.58-8-8v-40c0-13.25-10.75-24-24-24h0C10.75,196,0,206.75,0,220v48c0,26.51,21.49,48,48,48Z"/></svg>