<?xml version="1.0" encoding="UTF-8"?>
<svg id="Ebene_1" data-name="Ebene 1" xmlns="http://www.w3.org/2000/svg" xmlns:xlink="http://www.w3.org/1999/xlink" viewBox="0 0 512 512">
  <defs>
    <style>
      .cls-1 {
        fill: url(#Unbenannter_Verlauf_12-5);
      }

      .cls-2 {
        fill: url(#Unbenannter_Verlauf_12-3);
      }

      .cls-3 {
        fill: url(#Unbenannter_Verlauf_12-4);
      }

      .cls-4 {
        fill: url(#Unbenannter_Verlauf_12-2);
      }

      .cls-5 {
        fill: url(#Unbenannter_Verlauf_12);
      }
    </style>
    <linearGradient id="Unbenannter_Verlauf_12" data-name="Unbenannter Verlauf 12" x1="132.19" y1="207.58" x2="466.58" y2="85.87" gradientTransform="translate(-104.66 224.45) rotate(-40)" gradientUnits="userSpaceOnUse">
      <stop offset="0" stop-color="#999"/>
      <stop offset="1" stop-color="#e6e6e6"/>
    </linearGradient>
    <linearGradient id="Unbenannter_Verlauf_12-2" data-name="Unbenannter Verlauf 12" x1="45.42" y1="426.13" x2="379.81" y2="304.42" xlink:href="#Unbenannter_Verlauf_12"/>
    <linearGradient id="Unbenannter_Verlauf_12-3" data-name="Unbenannter Verlauf 12" x1="-76.58" y1="283.02" x2="108.4" y2="215.69" xlink:href="#Unbenannter_Verlauf_12"/>
    <linearGradient id="Unbenannter_Verlauf_12-4" data-name="Unbenannter Verlauf 12" x1="403.6" y1="296.3" x2="588.58" y2="228.98" xlink:href="#Unbenannter_Verlauf_12"/>
    <linearGradient id="Unbenannter_Verlauf_12-5" data-name="Unbenannter Verlauf 12" x1="212.7" y1="297.27" x2="279.73" y2="181.16" gradientTransform="matrix(1,0,0,1,0,0)" xlink:href="#Unbenannter_Verlauf_12"/>
  </defs>
  <g>
    <g>
      <path class="cls-5" d="m51.78,216.42c8.97-46.78,33.53-88.72,70.52-119.76,42.25-35.45,96.89-52.68,151.83-47.87,48.1,4.21,92.28,24.48,126.46,57.65,8.85,8.59,22.74,9.15,32.18,1.22h.01c10.95-9.2,11.42-25.79,1.16-35.73C340.91-18.23,192.87-25.21,91.45,59.89,44.6,99.2,15.37,151.73,4.64,207.44c-2.69,13.97,7.3,27.21,21.47,28.45h0c12.29,1.07,23.34-7.35,25.66-19.46Z"/>
      <path class="cls-4" d="m485.89,276.11c14.18,1.24,24.17,14.48,21.47,28.45-10.73,55.71-39.96,108.23-86.81,147.55-101.42,85.1-249.46,78.13-342.5-12.04-10.26-9.94-9.78-26.54,1.16-35.72h.01c9.45-7.94,23.33-7.38,32.18,1.21,34.18,33.17,78.36,53.44,126.46,57.65,54.95,4.81,109.58-12.42,151.83-47.87,36.99-31.04,61.55-72.98,70.52-119.76,2.32-12.11,13.38-20.54,25.66-19.46h0Z"/>
    </g>
    <path class="cls-2" d="m164.4,384.55c-4.71,3.95-10.92,6.1-17.52,5.52l-87.67-7.67-7.67,87.67c-1.16,13.21-12.8,22.97-26,21.82-13.2-1.16-22.97-12.8-21.82-26l9.76-111.57c1.16-13.2,12.8-22.97,26-21.82l111.57,9.76c13.2,1.16,22.97,12.8,21.82,26-.58,6.6-3.78,12.35-8.48,16.29Z"/>
    <path class="cls-3" d="m490.03,173.98c-4.71,3.95-10.92,6.1-17.52,5.52l-111.57-9.76c-13.2-1.16-22.97-12.8-21.82-26,1.16-13.2,12.8-22.97,26-21.82l87.67,7.67,7.67-87.67c1.16-13.2,12.8-22.97,26-21.82,13.2,1.16,22.97,12.8,21.82,26l-9.76,111.57c-.58,6.6-3.78,12.34-8.48,16.29Z"/>
  </g>
  <path class="cls-1" d="m243.17,304.72v-39.26l-30.23-46.86c-2.65-4.22-4.52-7.51-5.61-9.88s-1.65-4.42-1.65-6.16c0-2.87,1.11-5.35,3.34-7.43s4.97-3.12,8.23-3.12c3.43,0,6.04.97,7.81,2.91s4.43,5.81,7.98,11.61l23.13,37.57,23.39-37.57c1.41-2.31,2.59-4.25,3.55-5.83s2.01-3.05,3.17-4.43,2.43-2.43,3.84-3.17,3.12-1.1,5.15-1.1c3.15,0,5.78,1.03,7.89,3.08s3.17,4.43,3.17,7.13c0,2.2-.53,4.39-1.6,6.59s-2.9,5.23-5.49,9.12l-30.99,47.54v39.26c0,5.12-1.18,8.95-3.55,11.48-2.36,2.53-5.38,3.8-9.03,3.8s-6.73-1.25-9.03-3.76-3.46-6.35-3.46-11.53Z"/>
</svg>