<?xml version="1.0" encoding="UTF-8"?><svg id="Ebene_1" xmlns="http://www.w3.org/2000/svg" xmlns:xlink="http://www.w3.org/1999/xlink" viewBox="0 0 512 512"><defs><style>.cls-1{fill:url(#Unbenannter_Verlauf_110);}.cls-2{fill:url(#Unbenannter_Verlauf);}.cls-3{mask:url(#mask-1);}.cls-4{mask:url(#mask);}.cls-5{fill:url(#Unbenannter_Verlauf_3);}.cls-6{fill:url(#Unbenannter_Verlauf_110-2);}</style><linearGradient id="Unbenannter_Verlauf_3" x1="0" y1="256" x2="512" y2="256" gradientUnits="userSpaceOnUse"><stop offset="0" stop-color="#fff"/><stop offset="1" stop-color="#000"/></linearGradient><mask id="mask" x="0" y="0" width="512" height="512" maskUnits="userSpaceOnUse"><rect class="cls-5" width="512" height="512"/></mask><linearGradient id="Unbenannter_Verlauf_110" x1="165.77" y1="263.7" x2="354.8" y2="-63.72" gradientUnits="userSpaceOnUse"><stop offset="0" stop-color="#29abe2"/><stop offset="1" stop-color="#80daff"/></linearGradient><linearGradient id="Unbenannter_Verlauf" x1="0" y1="256" x2="512" y2="256" gradientUnits="userSpaceOnUse"><stop offset="0" stop-color="#fff"/><stop offset="1" stop-color="#000"/></linearGradient><mask id="mask-1" x="0" y="0" width="512" height="512" maskUnits="userSpaceOnUse"><rect class="cls-2" x="0" width="512" height="512"/></mask><linearGradient id="Unbenannter_Verlauf_110-2" x1="129.48" y1="559.72" x2="373.95" y2="136.3" xlink:href="#Unbenannter_Verlauf_110"/></defs><g class="cls-4"><path class="cls-1" d="m448,0H64C28.65,0,0,28.65,0,64v104h512v-104c0-35.35-28.65-64-64-64Z"/></g><g class="cls-3"><path class="cls-6" d="m0,448c0,35.35,28.65,64,64,64h384c35.35,0,64-28.65,64-64v-232H0v232Z"/></g></svg>