<?xml version="1.0" encoding="UTF-8"?><svg id="Ebene_1" xmlns="http://www.w3.org/2000/svg" xmlns:xlink="http://www.w3.org/1999/xlink" viewBox="0 0 512 512"><defs><style>.cls-1{fill:url(#Unbenannter_Verlauf_110);}.cls-2{fill:url(#Unbenannter_Verlauf_110-2);}</style><linearGradient id="Unbenannter_Verlauf_110" x1="47.93" y1="414.39" x2="245.04" y2="72.99" gradientUnits="userSpaceOnUse"><stop offset="0" stop-color="#29abe2"/><stop offset="1" stop-color="#80daff"/></linearGradient><linearGradient id="Unbenannter_Verlauf_110-2" x1="266.91" y1="439.21" x2="464.12" y2="97.64" xlink:href="#Unbenannter_Verlauf_110"/></defs><path class="cls-1" d="m320.74,175.03L184.97,39.26c-9.37-9.37-24.57-9.37-33.94,0L15.26,175.03c-9.37,9.37-9.37,24.57,0,33.94,9.37,9.37,24.57,9.37,33.94,0l94.79-94.79v341.82c0,13.25,10.75,24,24,24s24-10.75,24-24v-84.12l-17.71-17.71c-18.71-18.72-18.71-49.17,0-67.88,5.09-5.09,11.12-8.9,17.71-11.26V114.18l94.79,94.79c4.69,4.69,10.83,7.03,16.97,7.03s12.28-2.34,16.97-7.03c9.37-9.37,9.37-24.57,0-33.94Z"/><path class="cls-2" d="m496.73,303.26c-9.37-9.37-24.57-9.37-33.94,0l-94.79,94.79V56c0-13.25-10.75-24-24-24s-24,10.75-24,24v84.35l17.71,17.71c18.71,18.72,18.71,49.17,0,67.88-5.09,5.09-11.12,8.9-17.71,11.25v160.86l-94.79-94.79c-4.69-4.69-10.83-7.03-16.97-7.03s-12.28,2.34-16.97,7.03c-9.37,9.37-9.37,24.57,0,33.94l135.76,135.76c9.37,9.37,24.57,9.37,33.94,0l135.76-135.76c9.37-9.37,9.37-24.57,0-33.94Z"/></svg>