<?xml version="1.0" encoding="UTF-8"?>
<svg id="Ebene_1" data-name="Ebene 1" xmlns="http://www.w3.org/2000/svg" xmlns:xlink="http://www.w3.org/1999/xlink" viewBox="0 0 376 376">
  <defs>
    <style>
      .cls-1 {
        fill: url(#Unbenannter_Verlauf_12);
      }
    </style>
    <linearGradient id="Unbenannter_Verlauf_12" data-name="Unbenannter Verlauf 12" x1="16.42" y1="224.03" x2="495.58" y2="95.64" gradientTransform="translate(-106.04 256) rotate(-45)" gradientUnits="userSpaceOnUse">
      <stop offset="0" stop-color="#999"/>
      <stop offset="1" stop-color="#e6e6e6"/>
    </linearGradient>
  </defs>
  <path class="cls-1" d="m335.04,7.03l-147.04,147.04L40.96,7.03C31.59-2.34,16.4-2.34,7.03,7.03h0c-9.37,9.37-9.37,24.56,0,33.93l147.04,147.04L7.03,335.04c-9.37,9.37-9.37,24.56,0,33.93h0c9.37,9.37,24.56,9.37,33.93,0l147.04-147.04,147.04,147.04c9.37,9.37,24.56,9.37,33.93,0h0c9.37-9.37,9.37-24.56,0-33.93l-147.04-147.04L368.97,40.96c9.37-9.37,9.37-24.56,0-33.93h0c-9.37-9.37-24.56-9.37-33.93,0Z"/>
</svg>