<?xml version="1.0" encoding="UTF-8"?>
<svg id="Ebene_1" data-name="Ebene 1" xmlns="http://www.w3.org/2000/svg" xmlns:xlink="http://www.w3.org/1999/xlink" viewBox="0 0 512 274">
  <defs>
    <style>
      .cls-1 {
        fill: url(#Unbenannter_Verlauf_12-5);
      }

      .cls-2 {
        fill: url(#Unbenannter_Verlauf_12-3);
      }

      .cls-3 {
        fill: none;
        stroke: url(#Unbenannter_Verlauf_12-2);
        stroke-linejoin: round;
        stroke-width: 48px;
      }

      .cls-4 {
        fill: url(#Unbenannter_Verlauf_12-4);
      }

      .cls-5 {
        fill: url(#Unbenannter_Verlauf_12);
      }
    </style>
    <linearGradient id="Unbenannter_Verlauf_12" data-name="Unbenannter Verlauf 12" x1="58.01" y1="298.22" x2="178.36" y2="89.77" gradientUnits="userSpaceOnUse">
      <stop offset="0" stop-color="#999"/>
      <stop offset="1" stop-color="#e6e6e6"/>
    </linearGradient>
    <linearGradient id="Unbenannter_Verlauf_12-2" data-name="Unbenannter Verlauf 12" x1="213.61" y1="126.08" x2="298.39" y2="-20.77" xlink:href="#Unbenannter_Verlauf_12"/>
    <linearGradient id="Unbenannter_Verlauf_12-3" data-name="Unbenannter Verlauf 12" x1="264.01" y1="155.18" x2="348.8" y2="8.33" xlink:href="#Unbenannter_Verlauf_12"/>
    <linearGradient id="Unbenannter_Verlauf_12-4" data-name="Unbenannter Verlauf 12" x1="163.2" y1="96.98" x2="247.99" y2="-49.87" xlink:href="#Unbenannter_Verlauf_12"/>
    <linearGradient id="Unbenannter_Verlauf_12-5" data-name="Unbenannter Verlauf 12" x1="369.06" x2="489.41" y2="89.77" xlink:href="#Unbenannter_Verlauf_12"/>
  </defs>
  <path class="cls-5" d="m154.11,245.43l-10.34-27.19H55.7l-10.34,27.78c-4.04,10.84-7.49,18.15-10.34,21.94-2.86,3.79-7.54,5.69-14.04,5.69-5.52,0-10.39-2.02-14.63-6.06-4.24-4.04-6.35-8.62-6.35-13.74,0-2.96.49-6.01,1.48-9.16.98-3.15,2.61-7.54,4.88-13.15L61.76,90.88c1.57-4.04,3.47-8.89,5.69-14.55,2.22-5.66,4.58-10.37,7.09-14.11,2.51-3.74,5.81-6.77,9.9-9.09,4.09-2.31,9.14-3.47,15.15-3.47s11.2,1.16,15.29,3.47c4.09,2.32,7.39,5.3,9.9,8.94,2.51,3.65,4.63,7.56,6.35,11.75,1.72,4.19,3.92,9.78,6.58,16.77l56.59,139.78c4.43,10.64,6.65,18.37,6.65,23.2s-2.09,9.63-6.28,13.82c-4.19,4.19-9.23,6.28-15.15,6.28-3.45,0-6.4-.62-8.87-1.85-2.46-1.23-4.53-2.9-6.21-5.02-1.68-2.12-3.47-5.37-5.39-9.75-1.92-4.38-3.57-8.25-4.95-11.6Zm-86.88-60.14h64.72l-32.65-89.39-32.06,89.39Z"/>
  <g>
    <line class="cls-3" x1="308.22" y1="52.66" x2="203.78" y2="52.66"/>
    <polygon class="cls-2" points="292.82 0 384 52.66 292.82 105.31 292.82 0"/>
    <polygon class="cls-4" points="219.18 0 128 52.66 219.18 105.31 219.18 0"/>
  </g>
  <path class="cls-1" d="m465.16,245.43l-10.34-27.19h-88.06l-10.34,27.78c-4.04,10.84-7.49,18.15-10.34,21.94-2.86,3.79-7.54,5.69-14.04,5.69-5.52,0-10.39-2.02-14.63-6.06-4.24-4.04-6.35-8.62-6.35-13.74,0-2.96.49-6.01,1.48-9.16.98-3.15,2.61-7.54,4.88-13.15l55.41-140.66c1.57-4.04,3.47-8.89,5.69-14.55,2.22-5.66,4.58-10.37,7.09-14.11,2.51-3.74,5.81-6.77,9.9-9.09,4.09-2.31,9.14-3.47,15.15-3.47s11.2,1.16,15.29,3.47c4.09,2.32,7.39,5.3,9.9,8.94,2.51,3.65,4.63,7.56,6.35,11.75,1.72,4.19,3.92,9.78,6.58,16.77l56.59,139.78c4.43,10.64,6.65,18.37,6.65,23.2s-2.09,9.63-6.28,13.82c-4.19,4.19-9.23,6.28-15.15,6.28-3.45,0-6.4-.62-8.87-1.85-2.46-1.23-4.53-2.9-6.21-5.02-1.68-2.12-3.47-5.37-5.39-9.75-1.92-4.38-3.57-8.25-4.95-11.6Zm-86.88-60.14h64.72l-32.65-89.39-32.06,89.39Z"/>
</svg>