<?xml version="1.0" encoding="UTF-8"?><svg id="Ebene_1" xmlns="http://www.w3.org/2000/svg" xmlns:xlink="http://www.w3.org/1999/xlink" viewBox="0 0 512 512"><defs><style>.cls-1{fill:url(#Unbenannter_Verlauf_266-2);}.cls-2{fill:url(#Unbenannter_Verlauf_266);}</style><linearGradient id="Unbenannter_Verlauf_266" x1="127.98" y1="477.74" x2="384.02" y2="34.26" gradientUnits="userSpaceOnUse"><stop offset="0" stop-color="#f39"/><stop offset="1" stop-color="#ff80bf"/></linearGradient><linearGradient id="Unbenannter_Verlauf_266-2" x1="245.36" y1="277.57" x2="338.64" y2="116" xlink:href="#Unbenannter_Verlauf_266"/></defs><path class="cls-2" d="m256,48c55.56,0,107.79,21.64,147.08,60.92s60.92,91.52,60.92,147.08-21.64,107.79-60.92,147.08-91.52,60.92-147.08,60.92-107.79-21.64-147.08-60.92-60.92-91.52-60.92-147.08,21.64-107.79,60.92-147.08,91.52-60.92,147.08-60.92m0-48C114.62,0,0,114.62,0,256s114.62,256,256,256,256-114.62,256-256S397.38,0,256,0h0Z"/><path class="cls-1" d="m352,232h-72V96c0-13.25-10.75-24-24-24s-24,10.75-24,24v160c0,13.25,10.75,24,24,24h96c13.25,0,24-10.75,24-24s-10.75-24-24-24Z"/></svg>