<?xml version="1.0" encoding="UTF-8"?><svg id="Ebene_1" xmlns="http://www.w3.org/2000/svg" xmlns:xlink="http://www.w3.org/1999/xlink" viewBox="0 0 330 330"><defs><style>.cls-1{fill:url(#Unbenannter_Verlauf_12);}</style><linearGradient id="Unbenannter_Verlauf_12" x1="386.22" y1="448.47" x2="273.79" y2="28.89" gradientTransform="translate(114.65 -228.82) rotate(45)" gradientUnits="userSpaceOnUse"><stop offset="0" stop-color="#999"/><stop offset="1" stop-color="#e6e6e6"/></linearGradient></defs><path class="cls-1" d="m330.27,215.69V23.59c0-13.26-10.75-24.01-24.01-24.01H114.16c-13.26,0-24.01,10.75-24.01,24.01,0,13.26,10.75,24.01,24.01,24.01h134.13S6.46,289.43,6.46,289.43c-9.38,9.38-9.38,24.58,0,33.96s24.58,9.38,33.96,0l59.51-59.51h0s68.52-68.52,68.52-68.52c0,0,0,0,0,0l113.81-113.81v134.13c0,6.63,2.69,12.63,7.03,16.98s10.35,7.03,16.98,7.03c13.26,0,24.01-10.75,24.01-24.01Z"/></svg>