<?xml version="1.0" encoding="UTF-8" standalone="no"?><!-- Generator: Gravit.io --><svg xmlns="http://www.w3.org/2000/svg" xmlns:xlink="http://www.w3.org/1999/xlink" style="isolation:isolate" viewBox="0 0 256 256" width="256pt" height="256pt"><defs><clipPath id="_clipPath_GDZgWtncnIg9n68PkZMTQtKXH754GYDY"><rect width="256" height="256"/></clipPath></defs><g clip-path="url(#_clipPath_GDZgWtncnIg9n68PkZMTQtKXH754GYDY)"><defs><filter id="Mi1YPLe7FKs1d85V06PdcRQNaWrcx2BS" x="-200%" y="-200%" width="400%" height="400%" filterUnits="objectBoundingBox" color-interpolation-filters="sRGB"><feOffset xmlns="http://www.w3.org/2000/svg" in="SourceGraphic" dx="0" dy="0"/><feGaussianBlur xmlns="http://www.w3.org/2000/svg" stdDeviation="4.293609062839028" result="pf_100_offsetBlur"/><feComposite xmlns="http://www.w3.org/2000/svg" in="SourceGraphic" in2="pf_100_offsetBlur" result="pf_100_inverse" operator="out"/><feFlood xmlns="http://www.w3.org/2000/svg" flood-color="#FFFFFF" flood-opacity="0.5" result="pf_100_color"/><feComposite xmlns="http://www.w3.org/2000/svg" in="pf_100_color" in2="pf_100_inverse" operator="in" result="pf_100_shadow"/><feComposite xmlns="http://www.w3.org/2000/svg" in="pf_100_shadow" in2="SourceGraphic" operator="over"/></filter></defs><g filter="url(#Mi1YPLe7FKs1d85V06PdcRQNaWrcx2BS)"><path d=" M 38.314 163 L 217.686 163 C 223.378 163 228 167.622 228 173.314 L 228 202.686 C 228 208.378 223.378 213 217.686 213 L 38.314 213 C 32.622 213 28 208.378 28 202.686 L 28 173.314 C 28 167.622 32.622 163 38.314 163 Z " fill="rgb(121,255,137)"/><linearGradient id="_lgradient_3" x1="0" y1="0.5" x2="0.9701425001453319" y2="0.742535625036333" gradientTransform="matrix(200,0,0,50,28,163)" gradientUnits="userSpaceOnUse"><stop offset="0%" stop-opacity="0.8123180318054145" style="stop-color:rgb(255,255,255)"/><stop offset="85.35533905932736%" stop-opacity="0" style="stop-color:rgb(255,255,255)"/></linearGradient><path d=" M 38.314 163 L 217.686 163 C 223.378 163 228 167.622 228 173.314 L 228 202.686 C 228 208.378 223.378 213 217.686 213 L 38.314 213 C 32.622 213 28 208.378 28 202.686 L 28 173.314 C 28 167.622 32.622 163 38.314 163 Z " fill="url(#_lgradient_3)"/></g><defs><filter id="ybVPtoicrJSZ25bhimDU3OrfGaBd7oCI" x="-200%" y="-200%" width="400%" height="400%" filterUnits="objectBoundingBox" color-interpolation-filters="sRGB"><feOffset xmlns="http://www.w3.org/2000/svg" in="SourceGraphic" dx="0" dy="0"/><feGaussianBlur xmlns="http://www.w3.org/2000/svg" stdDeviation="4.293609062839028" result="pf_100_offsetBlur"/><feComposite xmlns="http://www.w3.org/2000/svg" in="SourceGraphic" in2="pf_100_offsetBlur" result="pf_100_inverse" operator="out"/><feFlood xmlns="http://www.w3.org/2000/svg" flood-color="#FFFFFF" flood-opacity="0.5" result="pf_100_color"/><feComposite xmlns="http://www.w3.org/2000/svg" in="pf_100_color" in2="pf_100_inverse" operator="in" result="pf_100_shadow"/><feComposite xmlns="http://www.w3.org/2000/svg" in="pf_100_shadow" in2="SourceGraphic" operator="over"/></filter></defs><g filter="url(#ybVPtoicrJSZ25bhimDU3OrfGaBd7oCI)"><path d=" M 38.314 103 L 217.686 103 C 223.378 103 228 107.622 228 113.314 L 228 142.686 C 228 148.378 223.378 153 217.686 153 L 38.314 153 C 32.622 153 28 148.378 28 142.686 L 28 113.314 C 28 107.622 32.622 103 38.314 103 Z " fill="rgb(121,186,255)"/><linearGradient id="_lgradient_4" x1="0" y1="0.5" x2="0.9701425001453319" y2="0.742535625036333" gradientTransform="matrix(200,0,0,50,28,103)" gradientUnits="userSpaceOnUse"><stop offset="0%" stop-opacity="0.8123180318054145" style="stop-color:rgb(255,255,255)"/><stop offset="85.35533905932736%" stop-opacity="0" style="stop-color:rgb(255,255,255)"/></linearGradient><path d=" M 38.314 103 L 217.686 103 C 223.378 103 228 107.622 228 113.314 L 228 142.686 C 228 148.378 223.378 153 217.686 153 L 38.314 153 C 32.622 153 28 148.378 28 142.686 L 28 113.314 C 28 107.622 32.622 103 38.314 103 Z " fill="url(#_lgradient_4)"/></g><defs><filter id="oDfDIdTSt0qk90U6bbZYudl0s7wiygve" x="-200%" y="-200%" width="400%" height="400%" filterUnits="objectBoundingBox" color-interpolation-filters="sRGB"><feOffset xmlns="http://www.w3.org/2000/svg" in="SourceGraphic" dx="0" dy="0"/><feGaussianBlur xmlns="http://www.w3.org/2000/svg" stdDeviation="4.293609062839028" result="pf_100_offsetBlur"/><feComposite xmlns="http://www.w3.org/2000/svg" in="SourceGraphic" in2="pf_100_offsetBlur" result="pf_100_inverse" operator="out"/><feFlood xmlns="http://www.w3.org/2000/svg" flood-color="#FFFFFF" flood-opacity="0.5" result="pf_100_color"/><feComposite xmlns="http://www.w3.org/2000/svg" in="pf_100_color" in2="pf_100_inverse" operator="in" result="pf_100_shadow"/><feComposite xmlns="http://www.w3.org/2000/svg" in="pf_100_shadow" in2="SourceGraphic" operator="over"/></filter></defs><g filter="url(#oDfDIdTSt0qk90U6bbZYudl0s7wiygve)"><path d=" M 38.314 43 L 217.686 43 C 223.378 43 228 47.622 228 53.314 L 228 82.686 C 228 88.378 223.378 93 217.686 93 L 38.314 93 C 32.622 93 28 88.378 28 82.686 L 28 53.314 C 28 47.622 32.622 43 38.314 43 Z " fill="rgb(255,121,121)"/><linearGradient id="_lgradient_5" x1="0" y1="0.5" x2="0.9701425001453319" y2="0.742535625036333" gradientTransform="matrix(200,0,0,50,28,43)" gradientUnits="userSpaceOnUse"><stop offset="0%" stop-opacity="0.8123180318054145" style="stop-color:rgb(255,255,255)"/><stop offset="85.35533905932736%" stop-opacity="0" style="stop-color:rgb(255,255,255)"/></linearGradient><path d=" M 38.314 43 L 217.686 43 C 223.378 43 228 47.622 228 53.314 L 228 82.686 C 228 88.378 223.378 93 217.686 93 L 38.314 93 C 32.622 93 28 88.378 28 82.686 L 28 53.314 C 28 47.622 32.622 43 38.314 43 Z " fill="url(#_lgradient_5)"/></g></g></svg>