<?xml version="1.0" encoding="UTF-8"?><svg id="Ebene_1" xmlns="http://www.w3.org/2000/svg" xmlns:xlink="http://www.w3.org/1999/xlink" viewBox="0 0 512 512"><defs><style>.cls-1{fill:none;stroke:url(#Unbenannter_Verlauf_3-4);stroke-linecap:round;stroke-miterlimit:10;stroke-width:48px;}.cls-2{fill:url(#Unbenannter_Verlauf_3-3);}.cls-3{fill:url(#Unbenannter_Verlauf_3);}.cls-4{fill:url(#Unbenannter_Verlauf_3-2);}</style><linearGradient id="Unbenannter_Verlauf_3" x1="127.98" y1="477.74" x2="384.02" y2="34.26" gradientUnits="userSpaceOnUse"><stop offset="0" stop-color="#f66"/><stop offset="1" stop-color="#ffb3b3"/></linearGradient><linearGradient id="Unbenannter_Verlauf_3-2" x1="151" y1="212.72" x2="183" y2="157.28" xlink:href="#Unbenannter_Verlauf_3"/><linearGradient id="Unbenannter_Verlauf_3-3" x1="328" y1="212.72" x2="360" y2="157.28" xlink:href="#Unbenannter_Verlauf_3"/><linearGradient id="Unbenannter_Verlauf_3-4" x1="207.7" y1="403.65" x2="295.72" y2="251.21" xlink:href="#Unbenannter_Verlauf_3"/></defs><path class="cls-3" d="m256,48c55.56,0,107.79,21.64,147.08,60.92s60.92,91.52,60.92,147.08-21.64,107.79-60.92,147.08-91.52,60.92-147.08,60.92-107.79-21.64-147.08-60.92-60.92-91.52-60.92-147.08,21.64-107.79,60.92-147.08,91.52-60.92,147.08-60.92m0-48C114.62,0,0,114.62,0,256s114.62,256,256,256,256-114.62,256-256S397.38,0,256,0h0Z"/><circle class="cls-4" cx="167" cy="185" r="32"/><circle class="cls-2" cx="344" cy="185" r="32"/><path class="cls-1" d="m145.13,320c22.13,38.26,63.49,64,110.87,64s88.74-25.74,110.87-64"/></svg>