<?xml version="1.0" encoding="UTF-8"?><svg id="Ebene_1" xmlns="http://www.w3.org/2000/svg" xmlns:xlink="http://www.w3.org/1999/xlink" viewBox="0 0 512 512"><defs><style>.cls-1{fill:url(#Unbenannter_Verlauf_3);}.cls-2{fill:url(#Unbenannter_Verlauf_3-2);}</style><linearGradient id="Unbenannter_Verlauf_3" x1="37.5" y1="456.32" x2="275.27" y2="44.5" gradientUnits="userSpaceOnUse"><stop offset="0" stop-color="#f66"/><stop offset="1" stop-color="#ffb3b3"/></linearGradient><linearGradient id="Unbenannter_Verlauf_3-2" x1="236.8" y1="467.38" x2="474.49" y2="55.68" xlink:href="#Unbenannter_Verlauf_3"/></defs><path class="cls-1" d="m15.98,287.97v-63.93c19.36-.17,33.92-5.9,43.69-17.18,9.76-11.28,14.65-36.63,14.65-76.05,0-30.01,1.11-52.25,3.33-66.73,2.22-14.47,7.59-26.59,16.12-36.36,8.52-9.76,19.53-16.82,33.03-21.18,13.49-4.35,32.59-6.53,57.27-6.53h14.12v63.67c-25.75,0-41.16,2.66-46.22,7.99-5.06,5.33-7.77,15.72-8.13,31.17-1.07,42.62-2.44,70.33-4.13,83.11-1.69,12.79-5.59,25-11.72,36.63-6.13,11.63-17.54,22.78-34.23,33.43,15.8,9.59,27.31,21.04,34.5,34.36s11.41,32.5,12.65,57.54l4,77.52c1.6,7.46,5.42,13.09,11.46,16.92,6.04,3.82,19.89,5.73,41.56,5.73v63.93h-13.85c-28.42,0-50.35-3.24-65.8-9.72-15.45-6.49-26.64-17.1-33.56-31.83-6.93-14.74-10.39-38.54-10.39-71.39,0-36.23-1.24-59.4-3.73-69.53-2.49-10.12-7.28-19.4-14.39-27.84-7.11-8.43-20.51-13.01-40.22-13.72Z"/><path class="cls-2" d="m496.02,287.97c-19.36.18-33.92,5.95-43.69,17.32-9.77,11.37-14.65,36.59-14.65,75.66,0,30.19-1.07,52.52-3.2,67-2.13,14.47-7.46,26.59-15.98,36.36-8.52,9.77-19.54,16.82-33.03,21.18-13.5,4.35-32.59,6.53-57.27,6.53h-14.12v-63.93c24.68,0,39.83-2.58,45.42-7.73,5.59-5.15,8.57-15.63,8.92-31.43,1.07-45.46,2.71-74.63,4.93-87.51,2.22-12.87,6.66-24.91,13.32-36.1,6.66-11.19,17.18-20.95,31.57-29.3-15.28-9.94-25.93-19.71-31.97-29.3-6.04-9.59-10.12-20.02-12.25-31.3-2.13-11.28-3.73-32.23-4.79-62.87-1.07-30.63-2.31-48.17-3.73-52.61-1.42-4.44-4.84-8.26-10.26-11.45-5.42-3.2-19.23-4.8-41.42-4.8V0h14.12c28.41,0,50.35,3.24,65.8,9.72,15.45,6.48,26.64,17.09,33.56,31.83,6.93,14.74,10.39,38.54,10.39,71.39,0,37.65,1.37,61.36,4.13,71.13,2.75,9.77,7.63,18.69,14.65,26.77,7.01,8.08,20.2,12.48,39.56,13.19v63.93Z"/></svg>